<svg width="188" height="37" viewBox="0 0 188 37" fill="none" xmlns="http://www.w3.org/2000/svg">
<path d="M11.8639 2.16162V14.8769H8.70935V5.49221H3.16028V14.8769H0V2.16162H11.8639Z" fill="white"/>
<path d="M27.7338 5.78715C28.2757 7.04586 28.4291 8.43591 28.1748 9.78128C27.9205 11.1267 27.2698 12.3668 26.3051 13.3448C25.7139 13.9343 25.0134 14.4044 24.2421 14.7293C23.4708 15.0563 22.6406 15.2242 21.8019 15.2229C20.9678 15.2466 20.1392 15.0817 19.3788 14.7406C18.8063 14.5104 18.3345 14.0862 18.0472 13.5434V20.1365H14.887V2.16152H17.9501V3.49489C18.2389 2.9448 18.7208 2.51887 19.3045 2.29769C20.0735 1.95831 20.9091 1.79354 21.7504 1.8154C22.6011 1.81195 23.4441 1.97587 24.2307 2.29769C25.0065 2.61268 25.7116 3.07747 26.3051 3.6651C26.9128 4.27592 27.3977 4.99611 27.7338 5.78715ZM24.8136 9.87806C24.9998 9.44417 25.0932 8.97658 25.0879 8.50496C25.0937 8.0388 25.0002 7.57668 24.8136 7.1489C24.6389 6.74568 24.3798 6.38397 24.0535 6.08786C23.7144 5.78046 23.3158 5.54492 22.882 5.39564C22.3997 5.22513 21.8909 5.14063 21.379 5.14601C20.6452 5.13419 19.9195 5.29969 19.2645 5.62828C18.7298 5.87315 18.2989 6.29696 18.0472 6.82548V10.2298C18.2956 10.7607 18.7275 11.1855 19.2645 11.427C19.9186 11.7582 20.6449 11.9239 21.379 11.9093C21.8905 11.9165 22.3993 11.8339 22.882 11.6653C23.3147 11.5138 23.7129 11.2785 24.0535 10.9731C24.3813 10.6738 24.6405 10.3081 24.8136 9.90074" fill="white"/>
<path d="M33.6143 2.16162V9.79305L39.4091 2.16162H42.5694V14.8769H39.4606V7.24546L33.6658 14.8769H30.5055V2.16162H33.6143Z" fill="white"/>
<path d="M58.3423 8.5277C58.3456 9.45241 58.1508 10.3672 57.7708 11.2115C57.4196 12.0035 56.9169 12.7203 56.2907 13.3222C55.6663 13.9139 54.938 14.3869 54.1419 14.718C52.4823 15.3897 50.6239 15.3897 48.9643 14.718C48.1682 14.3869 47.4399 13.9139 46.8156 13.3222C46.1893 12.7203 45.6867 12.0035 45.3354 11.2115C44.9734 10.3653 44.7869 9.45549 44.7869 8.53621C44.7869 7.61692 44.9734 6.70707 45.3354 5.86095C46.0366 4.25803 47.3378 2.98847 48.9643 2.32043C50.6239 1.64872 52.4823 1.64872 54.1419 2.32043C55.7684 2.98847 57.0696 4.25803 57.7708 5.86095C58.1475 6.70026 58.3422 7.60884 58.3423 8.5277ZM48.2671 7.16029C48.0816 7.59242 47.9882 8.05799 47.9928 8.5277C47.987 8.9957 48.0805 9.45966 48.2671 9.88944C48.4432 10.2918 48.7021 10.6532 49.0272 10.9505C49.3586 11.2535 49.747 11.4887 50.1701 11.6427C50.62 11.808 51.0963 11.8907 51.576 11.8867C52.0519 11.8912 52.5246 11.8085 52.9704 11.6427C53.3918 11.4853 53.7795 11.2504 54.1133 10.9505C54.4365 10.6491 54.6985 10.2889 54.8848 9.88944C55.0779 9.46131 55.1754 8.99677 55.1706 8.5277C55.1742 8.05692 55.0768 7.59076 54.8848 7.16029C54.7015 6.75576 54.4393 6.39128 54.1133 6.08791C53.7811 5.7859 53.3929 5.55081 52.9704 5.39569C52.525 5.22808 52.0523 5.14346 51.576 5.14605C51.096 5.14387 50.6196 5.22845 50.1701 5.39569C49.7462 5.54797 49.3575 5.78339 49.0272 6.08791C48.6994 6.38719 48.4402 6.75291 48.2671 7.16029Z" fill="white"/>
<path d="M73.3722 5.78722C73.9141 7.04593 74.0675 8.43599 73.8132 9.78135C73.5589 11.1267 72.9082 12.3669 71.9435 13.3449C71.3513 13.9357 70.6485 14.406 69.8747 14.7293C69.1056 15.0568 68.2771 15.2248 67.4402 15.223C66.6043 15.2467 65.7739 15.0818 65.0115 14.7407C64.4431 14.5149 63.9735 14.0969 63.6856 13.5605V20.1536H60.5425V2.16159H63.5999V3.49497C63.892 2.94746 64.3728 2.52253 64.9543 2.29776C65.7257 1.95937 66.5629 1.79467 67.406 1.81547C68.2548 1.81202 69.0959 1.97596 69.8805 2.29776C70.6589 2.61101 71.3662 3.07597 71.9606 3.66518C72.5665 4.27747 73.0511 4.99729 73.3893 5.78722H73.3722ZM70.4634 9.87813C70.6496 9.44424 70.743 8.97665 70.7377 8.50503C70.7435 8.03887 70.65 7.57676 70.4634 7.14897C70.2886 6.74726 70.0317 6.38595 69.709 6.08794C69.37 5.78053 68.9713 5.54499 68.5375 5.39572C68.055 5.22612 67.5463 5.14165 67.0345 5.14608C66.3006 5.13289 65.5746 5.29847 64.92 5.62835C64.383 5.86992 63.9511 6.29472 63.7028 6.82556V10.2299C63.9477 10.7631 64.3807 11.189 64.92 11.4271C66.048 11.9735 67.3467 12.0591 68.5375 11.6654C68.964 11.5044 69.3543 11.2615 69.6862 10.9505C70.0104 10.6494 70.2674 10.2841 70.4405 9.87813" fill="white"/>
<path d="M79.247 2.16162V9.79305L85.0418 2.16162H88.1964V14.8769H85.0875V7.24546L79.2927 14.8769H76.1324V2.16162H79.247Z" fill="white"/>
<path d="M101.369 5.49221H97.4144V14.8769H94.2541V5.49221H90.2994V2.16162H101.369V5.49221Z" fill="white"/>
<path d="M109.758 12.0627C110.541 12.0657 111.317 11.9193 112.044 11.6315C112.686 11.4118 113.254 11.0188 113.684 10.4967L114.656 12.9195C114.19 13.6364 113.531 14.2087 112.753 14.5706C111.79 15.0387 110.727 15.2684 109.655 15.2401C108.727 15.2479 107.806 15.0884 106.935 14.7692C106.125 14.4767 105.385 14.0229 104.758 13.4358C104.131 12.8459 103.638 12.1302 103.312 11.3364C102.955 10.4491 102.778 9.50034 102.792 8.54486C102.787 7.66908 102.944 6.79983 103.255 5.98026C103.549 5.18931 103.995 4.46276 104.569 3.84118C105.153 3.21861 105.856 2.71886 106.638 2.37163C107.496 2.00169 108.423 1.8179 109.358 1.8326C110.25 1.82192 111.132 2.01611 111.936 2.4C112.685 2.75458 113.352 3.25872 113.896 3.8809C114.444 4.50886 114.87 5.2322 115.153 6.0143C115.453 6.82867 115.606 7.68914 115.605 8.55621C115.605 8.73777 115.605 8.93636 115.605 9.1236C115.601 9.30112 115.58 9.47786 115.542 9.65127H106.027C106.077 10.0325 106.215 10.397 106.43 10.7168C106.645 11.0365 106.931 11.3029 107.267 11.4953C108.033 11.8973 108.892 12.0929 109.758 12.0627ZM112.37 7.07532C112.331 6.76055 112.222 6.45843 112.05 6.1913C111.878 5.92417 111.647 5.69886 111.376 5.53201C110.769 5.16463 110.068 4.9794 109.358 4.99866C108.625 4.98644 107.903 5.17069 107.267 5.53201C106.976 5.69006 106.726 5.91077 106.533 6.17788C106.34 6.44499 106.21 6.75167 106.152 7.07532H112.37Z" fill="white"/>
<path d="M128.091 5.49221H124.137V14.8769H120.976V5.49221H117.022V2.16162H128.091V5.49221Z" fill="white"/>
<path d="M134.263 4.76032C133.97 4.75889 133.678 4.80685 133.4 4.90217C133.147 4.99489 132.906 5.12083 132.686 5.27665C132.477 5.43378 132.285 5.61258 132.115 5.81C131.944 6.0102 131.791 6.22472 131.657 6.45116L130.514 4.53337C130.613 4.15858 130.779 3.80478 131.006 3.48937C131.244 3.16209 131.534 2.87476 131.863 2.63828C132.223 2.38917 132.62 2.19771 133.04 2.07089C133.503 1.92694 133.985 1.8561 134.469 1.86096C135.075 1.84802 135.679 1.95008 136.246 2.16167C136.722 2.3395 137.154 2.61703 137.512 2.97539C137.87 3.33376 138.146 3.76452 138.321 4.23833C138.501 4.72906 138.592 5.24783 138.589 5.77028C138.592 6.19902 138.538 6.62623 138.429 7.04125C138.317 7.43668 138.158 7.81756 137.955 8.17603C137.726 8.57376 137.466 8.95317 137.178 9.31082C136.862 9.68908 136.502 10.1033 136.098 10.5534L134.835 11.9605H138.835V14.8769H130.606V12.6074L134.275 8.63562C134.538 8.35192 134.766 8.10795 134.955 7.89234C135.118 7.71129 135.269 7.51985 135.406 7.31927C135.524 7.14202 135.62 6.95156 135.692 6.75187C135.761 6.55506 135.794 6.34749 135.789 6.1391C135.792 5.95899 135.757 5.78027 135.685 5.61491C135.613 5.44954 135.506 5.30134 135.372 5.1802C135.057 4.90632 134.647 4.76577 134.229 4.7887" fill="white"/>
<path d="M144.299 2.33756C145.968 1.68696 147.824 1.68696 149.493 2.33756C150.294 2.65346 151.025 3.11968 151.648 3.71066C152.273 4.3122 152.77 5.03176 153.111 5.82702C153.469 6.68203 153.653 7.59894 153.653 8.52498C153.653 9.45102 153.469 10.3679 153.111 11.2229C152.767 12.0132 152.27 12.7285 151.648 13.328C151.025 13.9189 150.294 14.3852 149.493 14.701C147.824 15.3517 145.968 15.3517 144.299 14.701C143.498 14.3852 142.767 13.9189 142.144 13.328C141.522 12.7285 141.025 12.0132 140.681 11.2229C140.323 10.3679 140.138 9.45102 140.138 8.52498C140.138 7.59894 140.323 6.68203 140.681 5.82702C141.022 5.03176 141.519 4.3122 142.144 3.71066C142.767 3.11968 143.498 2.65346 144.299 2.33756ZM146.893 12.2669C147.424 12.2723 147.952 12.1779 148.448 11.9889C148.914 11.8202 149.342 11.5596 149.705 11.2229C150.062 10.8901 150.348 10.4886 150.545 10.0427C150.751 9.5622 150.854 9.04437 150.848 8.52214C150.852 8.00007 150.749 7.4826 150.545 7.00153C150.348 6.55397 150.063 6.15057 149.705 5.81568C149.34 5.48092 148.913 5.22065 148.448 5.0497C147.443 4.67889 146.338 4.67889 145.333 5.0497C144.87 5.22338 144.446 5.48339 144.081 5.81568C143.727 6.15241 143.444 6.55544 143.247 7.00153C143.043 7.4826 142.94 8.00007 142.944 8.52214C142.938 9.04437 143.041 9.5622 143.247 10.0427C143.444 10.4872 143.727 10.8884 144.081 11.2229C144.444 11.5572 144.869 11.8174 145.333 11.9889C145.831 12.1784 146.36 12.2727 146.893 12.2669Z" fill="white"/>
<path d="M158.14 12.2726C158.636 12.2954 159.125 12.1515 159.528 11.864C159.698 11.7355 159.835 11.5686 159.926 11.3771C160.017 11.1856 160.061 10.9751 160.054 10.7633C160.06 10.5731 160.02 10.3842 159.938 10.2124C159.855 10.0407 159.733 9.89101 159.58 9.77602C159.206 9.51545 158.755 9.38753 158.3 9.41289C157.975 9.406 157.652 9.44809 157.34 9.53772C157.137 9.59849 156.945 9.68833 156.768 9.8044L156.317 7.81284L158.523 5.07235H154.951V2.16162H162.134V4.23828L159.946 6.90501C160.285 6.98699 160.613 7.10891 160.923 7.26815C161.277 7.44965 161.596 7.69166 161.866 7.98307C162.171 8.31419 162.412 8.69906 162.574 9.11786C162.77 9.65194 162.863 10.2178 162.849 10.786C162.853 11.3696 162.74 11.9482 162.517 12.4881C162.301 13.0131 161.978 13.4883 161.569 13.8839C161.141 14.2926 160.636 14.6128 160.083 14.8258C159.464 15.0647 158.804 15.1822 158.14 15.1719C157.65 15.1789 157.162 15.1197 156.688 14.996C156.286 14.8945 155.901 14.7359 155.545 14.5251C155.246 14.3506 154.974 14.1325 154.739 13.8783C154.539 13.665 154.38 13.4169 154.271 13.1463L154.917 10.803C155.277 11.2322 155.715 11.5902 156.208 11.8584C156.806 12.1579 157.471 12.3005 158.14 12.2726Z" fill="white"/>
<path d="M168.289 2.33747C169.957 1.68666 171.811 1.68666 173.478 2.33747C174.281 2.65195 175.015 3.11829 175.638 3.71057C176.263 4.3121 176.761 5.03167 177.101 5.82693C177.818 7.55531 177.818 9.49445 177.101 11.2228C176.76 12.0124 176.264 12.7266 175.642 13.3238C175.02 13.921 174.285 14.3892 173.478 14.701C171.811 15.3518 169.957 15.3518 168.289 14.701C167.044 14.2151 165.978 13.3629 165.234 12.2585C164.491 11.1541 164.105 9.85029 164.129 8.52204C164.117 7.59637 164.3 6.67848 164.666 5.82693C165.009 5.03141 165.508 4.31188 166.135 3.71057C166.756 3.11834 167.488 2.65196 168.289 2.33747ZM170.884 12.2668C171.415 12.2716 171.942 12.1773 172.438 11.9888C172.904 11.8187 173.332 11.5583 173.695 11.2228C174.053 10.8913 174.337 10.4893 174.53 10.0426C174.74 9.56334 174.846 9.04493 174.838 8.52204C174.844 7.99931 174.739 7.48126 174.53 7.00143C174.337 6.55303 174.053 6.14922 173.695 5.81559C173.33 5.482 172.903 5.22187 172.438 5.0496C171.434 4.6788 170.328 4.6788 169.324 5.0496C168.861 5.22329 168.436 5.4833 168.072 5.81559C167.716 6.1508 167.432 6.55421 167.238 7.00143C167.029 7.48126 166.924 7.99931 166.929 8.52204C166.922 9.04493 167.027 9.56334 167.238 10.0426C167.432 10.4882 167.716 10.8898 168.072 11.2228C168.435 11.5571 168.86 11.8173 169.324 11.9888C169.821 12.1788 170.351 12.2732 170.884 12.2668Z" fill="white"/>
<path d="M178.919 5.08951L181.879 0H184.445L187.4 5.08951H184.839L183.161 2.20369L181.479 5.08951H178.919Z" fill="white"/>
<path d="M9.13213 27.6602V31.439L12.0067 27.6602H13.5668V33.9582H12.0295V30.1794L9.1607 33.9582H7.59485V27.6602H9.13213Z" fill="white"/>
<path d="M15.1842 32.2846C15.3267 32.0447 15.4546 31.7965 15.5671 31.5414C15.6975 31.2405 15.8083 30.9316 15.8985 30.6165C16.0015 30.2572 16.0798 29.8913 16.1328 29.5214C16.1918 29.1042 16.2204 28.6832 16.2186 28.2618V27.6377H20.7904V32.2846H21.6819V35.6152H20.1675V33.9131H16.0414V35.6152H14.527V32.2846H15.1842ZM19.236 32.2846V29.2888H17.6244C17.5699 29.892 17.4569 30.4887 17.2872 31.0704C17.1644 31.4887 17.0037 31.8951 16.8072 32.2846H19.236Z" fill="white"/>
<path d="M25.8023 32.5625C26.1937 32.5644 26.5818 32.4912 26.9452 32.3469C27.2628 32.2349 27.5435 32.0387 27.7567 31.7795L28.2368 32.9767C28.008 33.3333 27.6806 33.617 27.2938 33.7938C26.8182 34.0269 26.2926 34.1418 25.7623 34.1285C25.3023 34.1318 24.8455 34.053 24.4136 33.8959C24.0137 33.746 23.6469 33.5205 23.3335 33.2321C23.0257 32.9386 22.7825 32.5851 22.6191 32.1937C22.2863 31.3412 22.2762 30.3978 22.5905 29.5383C22.7397 29.1494 22.9607 28.7915 23.242 28.483C23.5245 28.1707 23.8689 27.9196 24.2536 27.7454C24.678 27.5589 25.1381 27.466 25.6022 27.473C26.043 27.4669 26.4791 27.562 26.8766 27.7511C27.2498 27.9253 27.5826 28.1746 27.8539 28.483C28.1206 28.7959 28.3296 29.1532 28.4711 29.5383C28.6197 29.9418 28.6952 30.3683 28.694 30.798C28.694 30.8887 28.694 30.9852 28.694 31.0873C28.701 31.1761 28.701 31.2652 28.694 31.354H23.9678C23.9936 31.5422 24.0627 31.722 24.1697 31.8794C24.2767 32.0369 24.4188 32.1677 24.585 32.2618C24.9635 32.4649 25.3894 32.5647 25.8194 32.5512L25.8023 32.5625ZM27.1109 30.0774C27.0924 29.9219 27.0385 29.7727 26.9534 29.641C26.8683 29.5093 26.7541 29.3985 26.6195 29.3171C26.319 29.1344 25.9717 29.0417 25.6194 29.0504C25.2568 29.0456 24.8995 29.1377 24.585 29.3171C24.4384 29.3931 24.311 29.501 24.212 29.6326C24.1131 29.7642 24.0453 29.9162 24.0135 30.0774H27.1109Z" fill="white"/>
<path d="M36.226 29.4475C36.4975 30.0707 36.5751 30.7602 36.4488 31.4275C36.3225 32.0948 35.9982 32.7094 35.5174 33.1923C35.2242 33.4831 34.8768 33.7143 34.4945 33.8731C34.1141 34.0378 33.7036 34.1228 33.2886 34.1228C32.8756 34.1341 32.4654 34.0526 32.0885 33.8845C31.8042 33.7712 31.5708 33.5596 31.4313 33.2887V36.5512H29.8655V27.6545H31.397V28.3127C31.5413 28.0414 31.7784 27.8301 32.0657 27.7169C32.4489 27.5499 32.8645 27.4686 33.2829 27.4786C33.7024 27.4776 34.1179 27.5585 34.5059 27.7169C34.8911 27.8735 35.2408 28.105 35.5345 28.3978C35.8364 28.6993 36.077 29.0557 36.2432 29.4475H36.226ZM34.7973 31.4731C34.8897 31.2579 34.9364 31.0261 34.9345 30.7922C34.9371 30.5619 34.8904 30.3336 34.7973 30.1227C34.7093 29.923 34.5809 29.7434 34.4202 29.595C34.2547 29.4445 34.0603 29.3287 33.8487 29.2546C33.6088 29.1682 33.3551 29.1259 33.1 29.1297C32.737 29.1225 32.3778 29.2043 32.0542 29.368C31.7887 29.4887 31.5758 29.7002 31.4542 29.9638V31.6376C31.5758 31.9012 31.7887 32.1127 32.0542 32.2334C32.3778 32.397 32.737 32.4789 33.1 32.4717C33.3549 32.4727 33.6081 32.4305 33.8487 32.3468C34.0603 32.2727 34.2547 32.1569 34.4202 32.0064C34.5823 31.857 34.7108 31.6752 34.7973 31.4731Z" fill="white"/>
<path d="M37.5748 28.5964C37.6949 28.4152 37.8434 28.2543 38.0148 28.1197C38.1916 27.9834 38.3833 27.8673 38.5863 27.7736C38.806 27.6764 39.036 27.6041 39.2721 27.558C39.513 27.5107 39.7579 27.486 40.0036 27.4843C40.3913 27.4786 40.7775 27.5361 41.1465 27.6545C41.4696 27.7601 41.7687 27.9279 42.0266 28.1481C42.2756 28.3639 42.4712 28.6338 42.5981 28.9368C42.7467 29.2772 42.8244 29.6439 42.8267 30.0148V33.9866H41.3122V33.4192C41.1366 33.6732 40.8815 33.8626 40.5865 33.9582C39.9651 34.1951 39.2799 34.2091 38.6491 33.9979C38.3834 33.9022 38.136 33.7621 37.9177 33.5837C37.7067 33.4091 37.5402 33.1875 37.4319 32.9369C37.3144 32.6646 37.256 32.3707 37.2604 32.0745C37.2549 31.7678 37.3235 31.4643 37.4605 31.1893C37.6014 30.9351 37.7964 30.7143 38.0319 30.5425C38.271 30.3646 38.54 30.2302 38.8263 30.1453C39.1283 30.0545 39.4422 30.0086 39.7578 30.0092C40.0988 29.998 40.4392 30.046 40.7636 30.151C40.9603 30.2048 41.1395 30.3084 41.2837 30.4517V30.2815C41.292 30.1169 41.2641 29.9524 41.202 29.7995C41.1398 29.6467 41.0448 29.5091 40.9236 29.3964C40.6204 29.1598 40.2398 29.0426 39.855 29.0673C39.48 29.0623 39.1087 29.1419 38.7692 29.2999C38.4715 29.4276 38.2075 29.6218 37.9977 29.8673L37.5748 28.5964ZM41.2437 31.6943C41.1392 31.5488 40.9881 31.4427 40.8151 31.3936C40.5701 31.3034 40.3105 31.2591 40.0493 31.2631C39.7299 31.2427 39.4112 31.3115 39.1292 31.4617C39.0351 31.51 38.9565 31.5834 38.902 31.6736C38.8475 31.7638 38.8193 31.8672 38.8206 31.9723C38.8198 32.0781 38.8489 32.1819 38.9044 32.2722C38.96 32.3624 39.0398 32.4354 39.1349 32.483C39.4137 32.6243 39.7254 32.6889 40.0378 32.6702C40.3013 32.6749 40.5626 32.6226 40.8036 32.517C40.9892 32.4459 41.1445 32.3137 41.2437 32.1426V31.6943Z" fill="white"/>
<path d="M49.9873 27.6602H51.5017L52.5018 33.9582H50.9474L50.393 30.6276L48.9186 33.9582H47.6613L46.1812 30.6276L45.6154 33.9582H44.0267L45.0154 27.6602H46.4155L48.2042 31.683L49.9873 27.6602Z" fill="white"/>
<path d="M55.3077 27.6602V31.439L58.1766 27.6602H59.7424V33.9582H58.2051V30.1794L55.3363 33.9582H53.7704V27.6602H55.3077Z" fill="white"/>
<path d="M69.6862 32.9994C69.4594 33.3458 69.1384 33.6212 68.7604 33.7938C68.2984 34.0251 67.7861 34.1401 67.2688 34.1285C66.8378 34.1287 66.4108 34.0459 66.0116 33.8846C65.207 33.5623 64.5624 32.9386 64.2171 32.1484C63.8593 31.2851 63.8593 30.3165 64.2171 29.4532C64.3908 29.0599 64.6391 28.7035 64.9486 28.4036C65.2549 28.1101 65.616 27.8788 66.0116 27.7227C66.4112 27.5632 66.8382 27.4823 67.2688 27.4844C67.7808 27.4714 68.2879 27.5865 68.7432 27.8192C69.11 27.9897 69.4195 28.2616 69.6348 28.6022L69.1947 29.8958C68.9959 29.6777 68.7574 29.4986 68.4918 29.3681C68.1667 29.2094 67.8082 29.1297 67.446 29.1355C66.9432 29.111 66.4496 29.275 66.063 29.5951C65.8939 29.746 65.7602 29.932 65.6713 30.1398C65.5824 30.3476 65.5406 30.5723 65.5487 30.798C65.5404 31.0253 65.5822 31.2517 65.671 31.4614C65.7598 31.6711 65.8936 31.859 66.063 32.0122C66.4488 32.3343 66.9425 32.5004 67.446 32.4774C67.8132 32.4834 68.1763 32.3996 68.5032 32.2335C68.7729 32.0872 69.0147 31.8952 69.2176 31.6661L69.6862 32.9994Z" fill="white"/>
<path d="M75.7782 29.3113H73.8237V33.9582H72.2578V29.3113H70.2977V27.6602H75.7782V29.3113Z" fill="white"/>
<path d="M76.7153 28.5965C76.8371 28.4166 76.9855 28.2559 77.1554 28.1199C77.3321 27.9835 77.5239 27.8674 77.7269 27.7737C77.9472 27.6782 78.1771 27.606 78.4126 27.5582C78.6536 27.5109 78.8985 27.4862 79.1441 27.4844C79.5319 27.4798 79.9178 27.5372 80.2871 27.6546C80.609 27.7629 80.9076 27.9303 81.1672 28.1482C81.4167 28.3636 81.6123 28.6336 81.7387 28.9369C81.8787 29.275 81.9468 29.6382 81.9387 30.0036V33.9754H80.4243V33.408C80.2499 33.6632 79.9943 33.853 79.6985 33.947C79.0788 34.1825 78.3959 34.1965 77.7669 33.9867C77.4999 33.8935 77.2521 33.7532 77.0354 33.5725C76.8215 33.3993 76.6529 33.1774 76.5439 32.9257C76.4264 32.6533 76.368 32.3595 76.3725 32.0632C76.3661 31.7558 76.4368 31.4517 76.5782 31.1781C76.7172 30.9225 76.9126 30.7014 77.1497 30.5313C77.3874 30.3513 77.6568 30.2166 77.944 30.1341C78.244 30.0429 78.5561 29.997 78.8698 29.9979C79.2109 29.9863 79.5513 30.0343 79.8756 30.1398C80.0733 30.1953 80.2539 30.2986 80.4014 30.4405V30.2703C80.409 30.1052 80.3802 29.9405 80.3171 29.7876C80.2539 29.6347 80.1578 29.4974 80.0356 29.3852C79.7352 29.1474 79.356 29.03 78.9727 29.0561C78.5959 29.0512 78.2228 29.1307 77.8812 29.2887C77.5835 29.4164 77.3195 29.6106 77.1097 29.8561L76.7153 28.5965ZM80.39 31.6944C80.2816 31.5503 80.1293 31.4449 79.9556 31.3937C79.7126 31.3039 79.4549 31.2597 79.1956 31.2632C78.8743 31.2418 78.5535 31.3106 78.2698 31.4618C78.1757 31.5102 78.0971 31.5835 78.0426 31.6737C77.9881 31.7639 77.9599 31.8673 77.9612 31.9725C77.9604 32.0782 77.9895 32.1821 78.045 32.2723C78.1006 32.3625 78.1804 32.4355 78.2755 32.4831C78.5368 32.6006 78.8195 32.6642 79.1063 32.67C79.3932 32.6759 79.6782 32.6239 79.9442 32.5172C80.1312 32.4459 80.2883 32.3139 80.39 32.1427V31.6944Z" fill="white"/>
<path d="M85.0533 27.6602V29.8957H87.8364V27.6602H89.4022V33.9582H87.8364V31.5468H85.0533V33.9582H83.4874V27.6602H85.0533Z" fill="white"/>
<path d="M97.2772 30.815C97.2818 31.2701 97.1883 31.7209 97.0029 32.1371C96.8306 32.5311 96.5821 32.8878 96.2714 33.1867C95.9614 33.4798 95.599 33.7127 95.2027 33.8733C94.7973 34.0418 94.3621 34.1286 93.9226 34.1286C93.4831 34.1286 93.0479 34.0418 92.6425 33.8733C92.2488 33.711 91.8885 33.4783 91.5795 33.1867C91.0959 32.7166 90.7672 32.112 90.6366 31.4526C90.506 30.7932 90.5797 30.11 90.848 29.493C91.0195 29.0952 91.268 28.7347 91.5795 28.432C91.8881 28.137 92.2483 27.9005 92.6425 27.7341C93.463 27.4011 94.3823 27.4011 95.2027 27.7341C95.5994 27.8991 95.9617 28.1357 96.2714 28.432C96.5809 28.7363 96.8291 29.0964 97.0029 29.493C97.1878 29.9094 97.2813 30.36 97.2772 30.815ZM92.2882 30.1342C92.1958 30.3494 92.1491 30.5811 92.151 30.815C92.1484 31.0454 92.1951 31.2736 92.2882 31.4846C92.3722 31.685 92.4989 31.865 92.6596 32.0122C92.8247 32.1633 93.0192 32.2792 93.2311 32.3527C93.4515 32.4376 93.6862 32.48 93.9226 32.4775C94.1591 32.4805 94.3939 32.4381 94.6141 32.3527C94.8214 32.2774 95.0116 32.1618 95.1735 32.0128C95.3354 31.8637 95.4658 31.6842 95.557 31.4846C95.6519 31.274 95.7006 31.0457 95.6999 30.815C95.7 30.5807 95.6513 30.3489 95.557 30.1342C95.4664 29.9329 95.3363 29.7515 95.1742 29.6008C95.0079 29.4513 94.8138 29.3357 94.6027 29.2604C94.3817 29.1776 94.1474 29.1354 93.9112 29.1356C93.675 29.1358 93.4408 29.1781 93.2197 29.2604C93.0077 29.3338 92.8132 29.4497 92.6482 29.6008C92.4861 29.749 92.3592 29.9312 92.2767 30.1342" fill="white"/>
<path d="M100.883 27.6546C101.186 27.6535 101.488 27.6916 101.78 27.7681C102.042 27.8331 102.288 27.9467 102.506 28.1029C102.71 28.2534 102.878 28.4473 102.998 28.6702C103.118 28.9156 103.179 29.1858 103.175 29.4589C103.182 29.6806 103.142 29.9013 103.055 30.1057C102.97 30.2833 102.851 30.4431 102.706 30.5767C102.936 30.7227 103.131 30.9163 103.278 31.1441C103.44 31.4103 103.52 31.7182 103.506 32.0292C103.512 32.3146 103.448 32.5972 103.318 32.8519C103.19 33.0838 103.015 33.2866 102.803 33.4477C102.581 33.6166 102.329 33.7436 102.06 33.8222C101.771 33.9068 101.471 33.9489 101.169 33.947H98.4316V27.6489L100.883 27.6546ZM99.9746 29.1015V30.1625H101.083C101.165 30.1674 101.246 30.1559 101.323 30.1286C101.399 30.1012 101.469 30.0587 101.529 30.0036C101.579 29.9567 101.618 29.9004 101.646 29.8381C101.673 29.7757 101.688 29.7085 101.689 29.6405C101.686 29.4983 101.628 29.3627 101.529 29.2603C101.468 29.2046 101.395 29.1618 101.317 29.1345C101.238 29.1072 101.155 29.096 101.072 29.1015H99.9746ZM99.9746 31.4221V32.5115H101.415C101.494 32.5156 101.573 32.5042 101.647 32.4779C101.722 32.4517 101.79 32.411 101.849 32.3583C101.953 32.2517 102.01 32.1092 102.009 31.9611C102.004 31.8209 101.947 31.6875 101.849 31.5866C101.79 31.5308 101.72 31.4874 101.643 31.4591C101.566 31.4308 101.485 31.4183 101.403 31.4221H99.9746Z" fill="white"/>
<path d="M109.273 27.6546V33.9527H107.707V32.086H107.187L105.907 33.9527H104.095L105.541 31.8533C105.187 31.6796 104.889 31.4127 104.678 31.0817C104.464 30.7235 104.357 30.3122 104.369 29.8958C104.365 29.5728 104.427 29.2522 104.552 28.954C104.669 28.6861 104.843 28.4462 105.061 28.2504C105.28 28.0521 105.539 27.9013 105.821 27.8078C106.126 27.7039 106.447 27.6521 106.77 27.6546H109.273ZM106.649 29.2206C106.55 29.2147 106.45 29.2298 106.356 29.265C106.262 29.3002 106.177 29.3547 106.107 29.4249C106.043 29.4881 105.992 29.5633 105.958 29.6461C105.923 29.7289 105.906 29.8176 105.907 29.9072C105.902 29.9967 105.919 30.086 105.955 30.1679C105.992 30.2497 106.048 30.3218 106.118 30.3781C106.267 30.5003 106.456 30.563 106.649 30.554H107.707V29.2206H106.649Z" fill="white"/>
<path d="M115.77 29.3113H113.816V33.9582H112.25V29.3113H110.29V27.6602H115.77V29.3113Z" fill="white"/>
<path d="M122.068 32.9993C121.841 33.3457 121.52 33.6211 121.142 33.7937C120.682 34.0244 120.172 34.1393 119.656 34.1285C119.223 34.1292 118.794 34.0464 118.393 33.8845C117.589 33.5622 116.944 32.9385 116.599 32.1483C116.241 31.285 116.241 30.3164 116.599 29.4531C116.773 29.0598 117.021 28.7034 117.33 28.4035C117.637 28.11 117.998 27.8787 118.393 27.7226C118.795 27.5625 119.224 27.4816 119.656 27.4843C120.166 27.472 120.671 27.5871 121.125 27.8191C121.492 27.9896 121.801 28.2615 122.017 28.6021L121.577 29.8957C121.378 29.6776 121.139 29.4985 120.874 29.368C120.549 29.2093 120.19 29.1296 119.828 29.1354C119.325 29.1109 118.831 29.2749 118.445 29.595C118.276 29.7459 118.142 29.9319 118.053 30.1397C117.964 30.3475 117.922 30.5722 117.931 30.7979C117.922 31.0252 117.964 31.2516 118.053 31.4613C118.142 31.671 118.275 31.8589 118.445 32.0121C118.831 32.3342 119.324 32.5003 119.828 32.4773C120.195 32.4833 120.558 32.3995 120.885 32.2334C121.155 32.0871 121.397 31.8951 121.599 31.666L122.068 32.9993Z" fill="white"/>
<path d="M127.846 27.6546V33.9527H126.263V32.086H125.743L124.462 33.9527H122.657L124.097 31.8533C123.743 31.6796 123.445 31.4127 123.234 31.0817C123.02 30.7235 122.913 30.3122 122.925 29.8958C122.921 29.5728 122.983 29.2522 123.108 28.954C123.225 28.6861 123.399 28.4462 123.617 28.2504C123.837 28.0532 124.096 27.9027 124.377 27.8078C124.682 27.7039 125.003 27.6521 125.325 27.6546H127.846ZM125.223 29.2206C125.123 29.2147 125.023 29.2298 124.929 29.265C124.835 29.3002 124.75 29.3547 124.68 29.4249C124.616 29.4881 124.565 29.5633 124.531 29.6461C124.497 29.7289 124.479 29.8176 124.48 29.9072C124.475 29.9967 124.492 30.086 124.528 30.1679C124.565 30.2497 124.621 30.3218 124.691 30.3781C124.841 30.4994 125.03 30.5619 125.223 30.554H126.263V29.2206H125.223Z" fill="white"/>
<path d="M4.14317 27.6658L6.77197 33.9639L4.88609 33.9582L3.39453 30.2645L1.90297 33.9582H0.0170898L2.64589 27.6602L4.14317 27.6658Z" fill="white"/>
</svg>
