<svg width="242" height="49" viewBox="0 0 242 49" fill="none" xmlns="http://www.w3.org/2000/svg">
<g clip-path="url(#clip0_3216_1286)">
<path d="M6.74929 12.267L13.5442 5.52072L16.2073 8.17045L4.01761 20.2672C3.96004 19.8517 3.9314 19.4327 3.93189 19.0133C3.92866 17.7597 4.17602 16.5179 4.65964 15.3598C5.14326 14.2018 5.85353 13.1506 6.74929 12.267ZM21.5335 13.7195L8.11512 27.0759L6.97216 25.9809L6.93788 25.9525L6.73785 25.7596C6.28693 25.3084 5.87941 24.8165 5.5206 24.2901L18.9732 10.928L20.3219 12.267C20.7692 12.7108 21.1712 13.1973 21.522 13.7195H21.5335ZM20.3276 25.7483L13.5442 32.5059L10.8525 29.8392L23.0422 17.731C23.2434 19.1847 23.103 20.6649 22.6321 22.0558C22.1612 23.4466 21.3724 24.7104 20.3276 25.7483ZM4.2062 28.7611L13.5442 38.0323L23.0136 28.6079L23.5851 28.0405C25.8065 25.5882 27.0431 22.411 27.06 19.1129C27.0768 15.8147 25.8727 12.6252 23.6765 10.1506L13.5442 0L3.96618 9.50382C1.42912 12.0253 0.00402832 15.4436 0.00402832 19.0076C0.00402832 22.5717 1.42912 25.99 3.96618 28.5115L4.22335 28.7611" fill="#218A3D"/>
<path d="M26.8139 27.581C26.298 29.7737 25.2326 31.8015 23.7165 33.4762L23.145 34.0436L13.6756 43.4736L4.33761 34.1968C4.24762 34.118 4.16178 34.0347 4.08044 33.9471C2.30326 32.1924 1.05953 29.9763 0.491553 27.5526H0.337251C-0.0567688 29.6912 0.0780137 31.8927 0.730017 33.9682C1.38202 36.0436 2.53175 37.9309 4.08044 39.4679C4.16175 39.5536 4.24759 39.6351 4.33761 39.7118L13.6756 48.9887L23.145 39.5643L23.7165 38.9969C25.1031 37.4684 26.1178 35.6443 26.6826 33.6651C27.2473 31.6859 27.347 29.6044 26.9739 27.581H26.8139Z" fill="#218A3D"/>
<path d="M42.7124 6.70093H42.0323V42.2991H42.7124V6.70093Z" fill="#001B71"/>
<path d="M66.3031 8.38037V21.0956H63.1485V11.711H57.5994V21.0956H54.4391V8.38037H66.3031Z" fill="#001B71"/>
<path d="M82.173 12.006C82.7149 13.2647 82.8684 14.6548 82.614 16.0002C82.3597 17.3455 81.709 18.5857 80.7443 19.5637C80.1532 20.1531 79.4526 20.6233 78.6813 20.9481C77.91 21.2751 77.0798 21.4431 76.2411 21.4418C75.407 21.4655 74.5784 21.3005 73.818 20.9595C73.2455 20.7293 72.7738 20.3051 72.4865 19.7623V26.3554H69.3262V8.38039H72.3893V9.71376C72.6781 9.16368 73.16 8.73774 73.7437 8.51656C74.5127 8.17718 75.3483 8.01241 76.1896 8.03427C77.0403 8.03082 77.8833 8.19474 78.6699 8.51656C79.4457 8.83155 80.1508 9.29634 80.7443 9.88398C81.352 10.4948 81.8369 11.215 82.173 12.006ZM79.2528 16.0969C79.439 15.663 79.5324 15.1955 79.5271 14.7238C79.5329 14.2577 79.4394 13.7956 79.2528 13.3678C79.0781 12.9646 78.819 12.6028 78.4927 12.3067C78.1536 11.9993 77.755 11.7638 77.3212 11.6145C76.8389 11.444 76.3301 11.3595 75.8182 11.3649C75.0844 11.3531 74.3587 11.5186 73.7037 11.8471C73.169 12.092 72.7381 12.5158 72.4865 13.0444V16.4487C72.7348 16.9795 73.1667 17.4043 73.7037 17.6459C74.3578 17.9771 75.0841 18.1428 75.8182 18.1282C76.3297 18.1354 76.8386 18.0528 77.3212 17.8842C77.754 17.7327 78.1521 17.4974 78.4927 17.192C78.8205 16.8927 79.0797 16.527 79.2528 16.1196" fill="#001B71"/>
<path d="M88.0536 8.38037V16.0118L93.8484 8.38037H97.0087V21.0956H93.8998V13.4642L88.105 21.0956H84.9447V8.38037H88.0536Z" fill="#001B71"/>
<path d="M112.781 14.7466C112.785 15.6713 112.59 16.5861 112.21 17.4303C111.859 18.2223 111.356 18.9391 110.73 19.541C110.106 20.1327 109.377 20.6058 108.581 20.9368C106.922 21.6085 105.063 21.6085 103.404 20.9368C102.607 20.6058 101.879 20.1327 101.255 19.541C100.629 18.9391 100.126 18.2223 99.7746 17.4303C99.4126 16.5842 99.2261 15.6744 99.2261 14.7551C99.2261 13.8358 99.4126 12.9259 99.7746 12.0798C100.476 10.4769 101.777 9.20734 103.404 8.5393C105.063 7.8676 106.922 7.8676 108.581 8.5393C110.208 9.20734 111.509 10.4769 112.21 12.0798C112.587 12.9191 112.781 13.8277 112.781 14.7466ZM102.706 13.3792C102.521 13.8113 102.427 14.2769 102.432 14.7466C102.426 15.2146 102.52 15.6785 102.706 16.1083C102.882 16.5107 103.141 16.8721 103.466 17.1693C103.798 17.4724 104.186 17.7076 104.609 17.8616C105.059 18.0269 105.536 18.1095 106.015 18.1055C106.491 18.1101 106.964 18.0274 107.41 17.8616C107.831 17.7042 108.219 17.4693 108.553 17.1693C108.876 16.868 109.138 16.5078 109.324 16.1083C109.517 15.6802 109.615 15.2156 109.61 14.7466C109.613 14.2758 109.516 13.8096 109.324 13.3792C109.141 12.9746 108.879 12.6102 108.553 12.3068C108.22 12.0048 107.832 11.7697 107.41 11.6146C106.964 11.447 106.491 11.3623 106.015 11.3649C105.535 11.3627 105.059 11.4473 104.609 11.6146C104.185 11.7668 103.797 12.0023 103.466 12.3068C103.139 12.6061 102.879 12.9718 102.706 13.3792Z" fill="#001B71"/>
<path d="M127.811 12.006C128.353 13.2647 128.507 14.6547 128.252 16.0001C127.998 17.3455 127.347 18.5857 126.383 19.5636C125.791 20.1545 125.088 20.6248 124.314 20.9481C123.545 21.2755 122.716 21.4435 121.879 21.4417C121.044 21.4655 120.213 21.3006 119.451 20.9594C118.882 20.7336 118.413 20.3156 118.125 19.7793V26.3723H114.982V8.38034H118.039V9.71372C118.331 9.16621 118.812 8.74128 119.394 8.51651C120.165 8.17812 121.002 8.01342 121.845 8.03422C122.694 8.03077 123.535 8.19471 124.32 8.51651C125.098 8.82976 125.805 9.29472 126.4 9.88393C127.006 10.4962 127.49 11.216 127.829 12.006H127.811ZM124.903 16.0969C125.089 15.663 125.182 15.1954 125.177 14.7238C125.183 14.2576 125.089 13.7955 124.903 13.3677C124.728 12.966 124.471 12.6047 124.148 12.3067C123.809 11.9993 123.411 11.7637 122.977 11.6145C122.494 11.4449 121.986 11.3604 121.474 11.3648C120.74 11.3516 120.014 11.5172 119.359 11.8471C118.822 12.0887 118.39 12.5135 118.142 13.0443V16.4487C118.387 16.9819 118.82 17.4077 119.359 17.6459C120.487 18.1923 121.786 18.2779 122.977 17.8842C123.403 17.7232 123.794 17.4802 124.125 17.1692C124.45 16.8681 124.707 16.5028 124.88 16.0969" fill="#001B71"/>
<path d="M133.686 8.38037V16.0118L139.481 8.38037H142.636V21.0956H139.527V13.4642L133.732 21.0956H130.572V8.38037H133.686Z" fill="#001B71"/>
<path d="M155.808 11.711H151.854V21.0956H148.693V11.711H144.739V8.38037H155.808V11.711Z" fill="#001B71"/>
<path d="M164.198 18.2814C164.98 18.2844 165.756 18.138 166.483 17.8502C167.126 17.6305 167.694 17.2376 168.124 16.7154L169.095 19.1382C168.63 19.8552 167.97 20.4274 167.192 20.7893C166.229 21.2575 165.166 21.4872 164.095 21.4588C163.167 21.4667 162.245 21.3071 161.374 20.9879C160.565 20.6954 159.824 20.2417 159.197 19.6545C158.57 19.0646 158.078 18.349 157.751 17.5552C157.394 16.6678 157.217 15.7191 157.231 14.7636C157.226 13.8878 157.383 13.0186 157.694 12.199C157.988 11.4081 158.435 10.6815 159.008 10.0599C159.592 9.43736 160.295 8.93761 161.077 8.59038C161.935 8.22044 162.862 8.03665 163.797 8.05135C164.689 8.04067 165.571 8.23486 166.375 8.61875C167.124 8.97333 167.791 9.47747 168.335 10.0996C168.883 10.7276 169.309 11.4509 169.592 12.233C169.892 13.0474 170.045 13.9079 170.044 14.775C170.044 14.9565 170.044 15.1551 170.044 15.3423C170.04 15.5199 170.019 15.6966 169.981 15.87H160.466C160.516 16.2512 160.654 16.6158 160.869 16.9355C161.084 17.2553 161.371 17.5216 161.706 17.714C162.472 18.1161 163.331 18.3117 164.198 18.2814ZM166.809 13.2941C166.77 12.9793 166.661 12.6772 166.489 12.41C166.317 12.1429 166.086 11.9176 165.815 11.7508C165.208 11.3834 164.508 11.1981 163.797 11.2174C163.065 11.2052 162.342 11.3894 161.706 11.7508C161.416 11.9088 161.165 12.1295 160.972 12.3966C160.779 12.6637 160.649 12.9704 160.591 13.2941H166.809Z" fill="#001B71"/>
<path d="M182.531 11.711H178.576V21.0956H175.416V11.711H171.461V8.38037H182.531V11.711Z" fill="#001B71"/>
<path d="M188.703 10.9791C188.409 10.9776 188.117 11.0256 187.84 11.1209C187.586 11.2136 187.346 11.3396 187.125 11.4954C186.916 11.6525 186.725 11.8313 186.554 12.0288C186.383 12.229 186.23 12.4435 186.097 12.6699L184.954 10.7521C185.052 10.3773 185.219 10.0235 185.445 9.70812C185.683 9.38084 185.973 9.09351 186.302 8.85703C186.662 8.60792 187.06 8.41646 187.48 8.28964C187.942 8.14569 188.424 8.07485 188.908 8.07971C189.515 8.06677 190.118 8.16883 190.686 8.38042C191.161 8.55825 191.593 8.83578 191.951 9.19414C192.309 9.55251 192.585 9.98327 192.76 10.4571C192.941 10.9478 193.032 11.4666 193.029 11.989C193.031 12.4178 192.977 12.845 192.869 13.26C192.756 13.6554 192.597 14.0363 192.394 14.3948C192.165 14.7925 191.905 15.1719 191.617 15.5296C191.301 15.9078 190.941 16.322 190.537 16.7722L189.274 18.1793H193.274V21.0957H185.045V18.8261L188.714 14.8544C188.977 14.5707 189.205 14.3267 189.394 14.1111C189.557 13.93 189.708 13.7386 189.846 13.538C189.963 13.3608 190.059 13.1703 190.131 12.9706C190.2 12.7738 190.233 12.5662 190.228 12.3578C190.232 12.1777 190.196 11.999 190.124 11.8337C190.052 11.6683 189.946 11.5201 189.811 11.399C189.496 11.1251 189.086 10.9845 188.668 11.0075" fill="#EA0029"/>
<path d="M198.738 8.55631C200.407 7.90571 202.263 7.90571 203.933 8.55631C204.733 8.87221 205.464 9.33843 206.087 9.92941C206.712 10.5309 207.209 11.2505 207.55 12.0458C207.908 12.9008 208.093 13.8177 208.093 14.7437C208.093 15.6698 207.908 16.5867 207.55 17.4417C207.206 18.2319 206.709 18.9472 206.087 19.5467C205.464 20.1377 204.733 20.6039 203.933 20.9198C202.263 21.5704 200.407 21.5704 198.738 20.9198C197.937 20.6039 197.206 20.1377 196.583 19.5467C195.961 18.9472 195.464 18.2319 195.12 17.4417C194.762 16.5867 194.578 15.6698 194.578 14.7437C194.578 13.8177 194.762 12.9008 195.12 12.0458C195.461 11.2505 195.958 10.5309 196.583 9.92941C197.206 9.33843 197.937 8.87221 198.738 8.55631ZM201.332 18.4857C201.863 18.491 202.391 18.3967 202.887 18.2077C203.353 18.0389 203.781 17.7784 204.144 17.4417C204.502 17.1089 204.787 16.7073 204.984 16.2615C205.19 15.7809 205.293 15.2631 205.287 14.7409C205.291 14.2188 205.188 13.7014 204.984 13.2203C204.788 12.7727 204.502 12.3693 204.144 12.0344C203.78 11.6997 203.352 11.4394 202.887 11.2684C201.882 10.8976 200.777 10.8976 199.772 11.2684C199.31 11.4421 198.885 11.7021 198.521 12.0344C198.166 12.3712 197.883 12.7742 197.686 13.2203C197.482 13.7014 197.379 14.2188 197.383 14.7409C197.377 15.2631 197.48 15.7809 197.686 16.2615C197.883 16.7059 198.166 17.1071 198.521 17.4417C198.883 17.7759 199.308 18.0362 199.772 18.2077C200.27 18.3971 200.799 18.4915 201.332 18.4857Z" fill="#EA0029"/>
<path d="M212.579 18.4913C213.075 18.5142 213.564 18.3703 213.968 18.0828C214.137 17.9543 214.274 17.7873 214.365 17.5958C214.457 17.4043 214.501 17.1939 214.493 16.982C214.5 16.7918 214.46 16.6029 214.377 16.4312C214.295 16.2594 214.172 16.1098 214.019 15.9948C213.646 15.7342 213.195 15.6063 212.739 15.6316C212.414 15.6248 212.091 15.6668 211.779 15.7565C211.576 15.8172 211.384 15.9071 211.207 16.0231L210.756 14.0316L212.962 11.2911H209.39V8.38037H216.574V10.457L214.385 13.1238C214.724 13.2057 215.052 13.3277 215.362 13.4869C215.716 13.6684 216.035 13.9104 216.305 14.2018C216.61 14.5329 216.851 14.9178 217.014 15.3366C217.209 15.8707 217.303 16.4365 217.288 17.0047C217.292 17.5883 217.18 18.1669 216.957 18.7069C216.74 19.2319 216.417 19.707 216.008 20.1027C215.58 20.5114 215.075 20.8315 214.522 21.0446C213.903 21.2834 213.243 21.4009 212.579 21.3907C212.089 21.3977 211.601 21.3385 211.127 21.2148C210.726 21.1132 210.341 20.9546 209.984 20.7439C209.685 20.5693 209.413 20.3513 209.179 20.097C208.978 19.8838 208.82 19.6356 208.71 19.3651L209.356 17.0218C209.716 17.4509 210.154 17.8089 210.647 18.0771C211.245 18.3767 211.91 18.5193 212.579 18.4913Z" fill="#EA0029"/>
<path d="M222.728 8.55622C224.396 7.90541 226.25 7.90541 227.918 8.55622C228.72 8.8707 229.454 9.33704 230.078 9.92932C230.703 10.5309 231.2 11.2504 231.541 12.0457C232.257 13.7741 232.257 15.7132 231.541 17.4416C231.2 18.2312 230.704 18.9454 230.082 19.5426C229.459 20.1397 228.724 20.6079 227.918 20.9197C226.25 21.5705 224.396 21.5705 222.728 20.9197C221.483 20.4339 220.417 19.5816 219.674 18.4772C218.93 17.3728 218.544 16.069 218.568 14.7408C218.557 13.8151 218.74 12.8972 219.105 12.0457C219.448 11.2502 219.947 10.5306 220.574 9.92932C221.196 9.33709 221.927 8.87071 222.728 8.55622ZM225.323 18.4856C225.854 18.4904 226.381 18.3961 226.877 18.2076C227.343 18.0374 227.771 17.7771 228.135 17.4416C228.492 17.11 228.777 16.7081 228.969 16.2614C229.18 15.7821 229.285 15.2637 229.278 14.7408C229.283 14.2181 229.178 13.7 228.969 13.2202C228.777 12.7718 228.493 12.368 228.135 12.0343C227.769 11.7007 227.342 11.4406 226.877 11.2684C225.873 10.8975 224.767 10.8975 223.763 11.2684C223.3 11.442 222.875 11.702 222.511 12.0343C222.155 12.3696 221.871 12.773 221.677 13.2202C221.468 13.7 221.363 14.2181 221.368 14.7408C221.361 15.2637 221.466 15.7821 221.677 16.2614C221.871 16.707 222.155 17.1085 222.511 17.4416C222.874 17.7758 223.299 18.0361 223.763 18.2076C224.26 18.3976 224.79 18.4919 225.323 18.4856Z" fill="#EA0029"/>
<path d="M233.358 11.3081L236.318 6.21863H238.884L241.839 11.3081H239.279L237.6 8.42232L235.918 11.3081H233.358Z" fill="#EA0029"/>
<path d="M63.5714 33.879V37.6579L66.4459 33.879H68.0061V40.1771H66.4688V36.3983L63.6 40.1771H62.0341V33.879H63.5714Z" fill="#EA0029"/>
<path d="M69.6234 38.5033C69.7659 38.2634 69.8938 38.0152 70.0063 37.76C70.1367 37.4591 70.2474 37.1502 70.3377 36.8351C70.4407 36.4758 70.519 36.1099 70.572 35.7401C70.6309 35.3228 70.6596 34.9018 70.6577 34.4805V33.8563H75.2296V38.5033H76.1211V41.8339H74.6067V40.1317H70.4806V41.8339H68.9662V38.5033H69.6234ZM73.6752 38.5033V35.5074H72.0636C72.009 36.1107 71.8961 36.7073 71.7264 37.289C71.6036 37.7073 71.4429 38.1137 71.2464 38.5033H73.6752Z" fill="#EA0029"/>
<path d="M80.2414 38.7813C80.6329 38.7831 81.0209 38.7099 81.3844 38.5657C81.702 38.4536 81.9827 38.2574 82.1959 37.9983L82.6759 39.1955C82.4472 39.5521 82.1198 39.8357 81.733 40.0125C81.2573 40.2456 80.7317 40.3605 80.2014 40.3473C79.7415 40.3506 79.2846 40.2718 78.8527 40.1147C78.4529 39.9647 78.0861 39.7393 77.7726 39.4508C77.4649 39.1574 77.2217 38.8038 77.0583 38.4125C76.7255 37.5599 76.7154 36.6165 77.0297 35.7571C77.1789 35.3682 77.3999 35.0103 77.6812 34.7017C77.9637 34.3894 78.3081 34.1383 78.6927 33.9641C79.1172 33.7777 79.5773 33.6847 80.0414 33.6918C80.4821 33.6856 80.9183 33.7808 81.3158 33.9698C81.689 34.1441 82.0218 34.3933 82.2931 34.7017C82.5598 35.0147 82.7688 35.3719 82.9103 35.7571C83.0589 36.1606 83.1344 36.5871 83.1331 37.0167C83.1331 37.1075 83.1331 37.204 83.1331 37.3061C83.1402 37.3948 83.1402 37.484 83.1331 37.5727H78.407C78.4328 37.761 78.5018 37.9408 78.6089 38.0982C78.7159 38.2556 78.858 38.3865 79.0242 38.4806C79.4027 38.6836 79.8286 38.7835 80.2586 38.7699L80.2414 38.7813ZM81.5501 36.2961C81.5316 36.1407 81.4777 35.9915 81.3926 35.8598C81.3074 35.7281 81.1933 35.6173 81.0587 35.5358C80.7581 35.3531 80.4108 35.2605 80.0586 35.2691C79.6959 35.2644 79.3387 35.3565 79.0242 35.5358C78.8776 35.6119 78.7501 35.7197 78.6512 35.8513C78.5523 35.9829 78.4845 36.1349 78.4527 36.2961H81.5501Z" fill="#EA0029"/>
<path d="M90.6652 35.6663C90.9367 36.2895 91.0143 36.9791 90.888 37.6464C90.7617 38.3137 90.4374 38.9283 89.9566 39.4111C89.6634 39.7019 89.3159 39.9332 88.9336 40.092C88.5533 40.2566 88.1428 40.3416 87.7278 40.3416C87.3148 40.353 86.9046 40.2715 86.5277 40.1033C86.2434 39.9901 86.0099 39.7784 85.8705 39.5076V42.7701H84.3047V33.8734H85.8362V34.5316C85.9805 34.2602 86.2176 34.049 86.5048 33.9358C86.8881 33.7688 87.3037 33.6874 87.7221 33.6975C88.1416 33.6964 88.5571 33.7774 88.9451 33.9358C89.3303 34.0924 89.68 34.3239 89.9737 34.6167C90.2756 34.9182 90.5162 35.2746 90.6824 35.6663H90.6652ZM89.2365 37.6919C89.3289 37.4767 89.3756 37.245 89.3737 37.0111C89.3763 36.7807 89.3296 36.5525 89.2365 36.3415C89.1484 36.1419 89.0201 35.9623 88.8593 35.8139C88.6938 35.6634 88.4995 35.5476 88.2879 35.4734C88.048 35.3871 87.7943 35.3448 87.5392 35.3486C87.1762 35.3414 86.8169 35.4232 86.4934 35.5869C86.2279 35.7076 86.0149 35.919 85.8934 36.1827V37.8565C86.0149 38.1201 86.2279 38.3315 86.4934 38.4522C86.8169 38.6159 87.1762 38.6978 87.5392 38.6905C87.7941 38.6916 88.0473 38.6494 88.2879 38.5657C88.4995 38.4915 88.6938 38.3758 88.8593 38.2253C89.0215 38.0758 89.15 37.8941 89.2365 37.6919Z" fill="#EA0029"/>
<path d="M92.0139 34.8152C92.1341 34.634 92.2826 34.4731 92.454 34.3386C92.6307 34.2022 92.8224 34.0861 93.0255 33.9925C93.2452 33.8953 93.4752 33.823 93.7112 33.7769C93.9522 33.7296 94.1971 33.7049 94.4427 33.7031C94.8305 33.6975 95.2166 33.755 95.5857 33.8733C95.9088 33.979 96.2078 34.1467 96.4658 34.367C96.7148 34.5827 96.9104 34.8526 97.0373 35.1557C97.1859 35.496 97.2636 35.8627 97.2658 36.2337V40.2055H95.7514V39.6381C95.5758 39.8921 95.3207 40.0815 95.0256 40.1771C94.4042 40.414 93.719 40.428 93.0883 40.2168C92.8225 40.121 92.5752 39.981 92.3568 39.8026C92.1458 39.628 91.9794 39.4064 91.8711 39.1558C91.7536 38.8834 91.6952 38.5896 91.6996 38.2933C91.694 37.9867 91.7626 37.6831 91.8996 37.4082C92.0405 37.1539 92.2356 36.9332 92.4711 36.7614C92.7102 36.5835 92.9792 36.449 93.2655 36.3642C93.5675 36.2734 93.8814 36.2275 94.197 36.228C94.538 36.2168 94.8784 36.2648 95.2028 36.3699C95.3995 36.4237 95.5787 36.5273 95.7228 36.6706V36.5004C95.7312 36.3357 95.7033 36.1713 95.6411 36.0184C95.579 35.8655 95.484 35.728 95.3628 35.6152C95.0596 35.3786 94.679 35.2614 94.2941 35.2862C93.9191 35.2812 93.5479 35.3607 93.2083 35.5188C92.9106 35.6465 92.6466 35.8407 92.4368 36.0862L92.0139 34.8152ZM95.6828 37.9132C95.5784 37.7676 95.4273 37.6616 95.2542 37.6125C95.0093 37.5222 94.7497 37.478 94.4885 37.482C94.1691 37.4616 93.8504 37.5304 93.5684 37.6805C93.4743 37.7289 93.3957 37.8023 93.3412 37.8925C93.2867 37.9826 93.2585 38.0861 93.2598 38.1912C93.259 38.297 93.2881 38.4008 93.3436 38.491C93.3991 38.5813 93.479 38.6543 93.5741 38.7019C93.8529 38.8431 94.1646 38.9078 94.477 38.8891C94.7404 38.8937 95.0017 38.8415 95.2428 38.7359C95.4283 38.6648 95.5837 38.5326 95.6828 38.3614V37.9132Z" fill="#EA0029"/>
<path d="M104.426 33.879H105.941L106.941 40.1771H105.387L104.832 36.8465L103.358 40.1771H102.101L100.62 36.8465L100.055 40.1771H98.4659L99.4546 33.879H100.855L102.643 37.9018L104.426 33.879Z" fill="#EA0029"/>
<path d="M109.747 33.879V37.6579L112.616 33.879H114.182V40.1771H112.644V36.3983L109.776 40.1771H108.21V33.879H109.747Z" fill="#EA0029"/>
<path d="M124.125 39.2182C123.899 39.5646 123.578 39.84 123.2 40.0125C122.738 40.2439 122.225 40.3589 121.708 40.3473C121.277 40.3475 120.85 40.2646 120.451 40.1033C119.646 39.781 119.002 39.1574 118.656 38.3671C118.298 37.5039 118.298 36.5352 118.656 35.672C118.83 35.2787 119.078 34.9223 119.388 34.6223C119.694 34.3288 120.055 34.0975 120.451 33.9414C120.85 33.7819 121.277 33.701 121.708 33.7031C122.22 33.6901 122.727 33.8052 123.182 34.0379C123.549 34.2085 123.859 34.4803 124.074 34.8209L123.634 36.1146C123.435 35.8964 123.197 35.7174 122.931 35.5869C122.606 35.4281 122.247 35.3484 121.885 35.3543C121.382 35.3297 120.889 35.4938 120.502 35.8138C120.333 35.9648 120.199 36.1507 120.11 36.3585C120.022 36.5664 119.98 36.7911 119.988 37.0167C119.98 37.244 120.021 37.4704 120.11 37.6801C120.199 37.8898 120.333 38.0778 120.502 38.2309C120.888 38.553 121.382 38.7191 121.885 38.6962C122.252 38.7021 122.615 38.6184 122.942 38.4522C123.212 38.306 123.454 38.1139 123.657 37.8848L124.125 39.2182Z" fill="#EA0029"/>
<path d="M130.217 35.5301H128.263V40.1771H126.697V35.5301H124.737V33.879H130.217V35.5301Z" fill="#EA0029"/>
<path d="M131.155 34.8152C131.276 34.6354 131.425 34.4747 131.595 34.3386C131.771 34.2022 131.963 34.0861 132.166 33.9925C132.386 33.897 132.616 33.8247 132.852 33.7769C133.093 33.7296 133.338 33.7049 133.583 33.7031C133.971 33.6985 134.357 33.756 134.726 33.8734C135.048 33.9816 135.347 34.1491 135.606 34.367C135.856 34.5823 136.052 34.8523 136.178 35.1557C136.318 35.4937 136.386 35.8569 136.378 36.2224V40.1941H134.863V39.6267C134.689 39.8819 134.434 40.0717 134.138 40.1657C133.518 40.4012 132.835 40.4153 132.206 40.2055C131.939 40.1123 131.691 39.9719 131.475 39.7913C131.261 39.6181 131.092 39.3962 130.983 39.1444C130.866 38.8721 130.807 38.5782 130.812 38.282C130.805 37.9746 130.876 37.6704 131.017 37.3969C131.156 37.1413 131.352 36.9202 131.589 36.75C131.827 36.57 132.096 36.4353 132.383 36.3529C132.683 36.2617 132.995 36.2158 133.309 36.2167C133.65 36.205 133.991 36.253 134.315 36.3585C134.512 36.414 134.693 36.5173 134.841 36.6593V36.489C134.848 36.324 134.819 36.1592 134.756 36.0063C134.693 35.8534 134.597 35.7161 134.475 35.6039C134.174 35.3662 133.795 35.2488 133.412 35.2748C133.035 35.27 132.662 35.3495 132.32 35.5074C132.023 35.6352 131.759 35.8293 131.549 36.0748L131.155 34.8152ZM134.829 37.9132C134.721 37.7691 134.568 37.6636 134.395 37.6125C134.152 37.5227 133.894 37.4784 133.635 37.482C133.314 37.4605 132.993 37.5294 132.709 37.6806C132.615 37.7289 132.536 37.8023 132.482 37.8925C132.427 37.9826 132.399 38.0861 132.4 38.1912C132.4 38.297 132.429 38.4008 132.484 38.491C132.54 38.5813 132.62 38.6543 132.715 38.7019C132.976 38.8193 133.259 38.8829 133.546 38.8888C133.832 38.8946 134.117 38.8426 134.383 38.7359C134.57 38.6647 134.728 38.5327 134.829 38.3614V37.9132Z" fill="#EA0029"/>
<path d="M139.492 33.879V36.1146H142.276V33.879H143.841V40.1771H142.276V37.7657H139.492V40.1771H137.927V33.879H139.492Z" fill="#EA0029"/>
<path d="M151.716 37.0337C151.721 37.4887 151.628 37.9395 151.442 38.3557C151.27 38.7498 151.021 39.1064 150.711 39.4054C150.401 39.6984 150.038 39.9313 149.642 40.0919C149.237 40.2604 148.801 40.3472 148.362 40.3472C147.922 40.3472 147.487 40.2604 147.082 40.0919C146.688 39.9296 146.328 39.6969 146.019 39.4054C145.535 38.9352 145.206 38.3306 145.076 37.6712C144.945 37.0118 145.019 36.3286 145.287 35.7116C145.459 35.3138 145.707 34.9533 146.019 34.6506C146.327 34.3556 146.688 34.1191 147.082 33.9527C147.902 33.6198 148.821 33.6198 149.642 33.9527C150.039 34.1177 150.401 34.3543 150.711 34.6506C151.02 34.955 151.268 35.315 151.442 35.7116C151.627 36.128 151.721 36.5787 151.716 37.0337ZM146.727 36.3528C146.635 36.568 146.588 36.7998 146.59 37.0337C146.588 37.264 146.634 37.4922 146.727 37.7032C146.811 37.9036 146.938 38.0837 147.099 38.2309C147.264 38.382 147.458 38.4978 147.67 38.5713C147.891 38.6562 148.125 38.6986 148.362 38.6961C148.598 38.6992 148.833 38.6568 149.053 38.5713C149.261 38.496 149.451 38.3804 149.613 38.2314C149.775 38.0824 149.905 37.9028 149.996 37.7032C150.091 37.4926 150.14 37.2644 150.139 37.0337C150.139 36.7994 150.091 36.5676 149.996 36.3528C149.906 36.1515 149.775 35.9702 149.613 35.8194C149.447 35.6699 149.253 35.5543 149.042 35.479C148.821 35.3963 148.587 35.354 148.35 35.3542C148.114 35.3545 147.88 35.3968 147.659 35.479C147.447 35.5525 147.252 35.6683 147.087 35.8194C146.925 35.9677 146.798 36.1499 146.716 36.3528" fill="#EA0029"/>
<path d="M155.322 33.8734C155.625 33.8722 155.927 33.9104 156.22 33.9868C156.481 34.0518 156.727 34.1654 156.945 34.3216C157.15 34.4722 157.318 34.666 157.437 34.889C157.558 35.1344 157.618 35.4046 157.614 35.6777C157.622 35.8994 157.581 36.1201 157.494 36.3245C157.409 36.502 157.291 36.6618 157.145 36.7954C157.375 36.9415 157.57 37.135 157.717 37.3628C157.879 37.629 157.959 37.937 157.946 38.2479C157.952 38.5334 157.887 38.8159 157.757 39.0707C157.629 39.3025 157.454 39.5054 157.243 39.6664C157.02 39.8354 156.768 39.9623 156.5 40.0409C156.21 40.1256 155.91 40.1676 155.608 40.1657H152.871V33.8677L155.322 33.8734ZM154.414 35.3202V36.3812H155.522C155.604 36.3862 155.685 36.3746 155.762 36.3473C155.838 36.32 155.909 36.2775 155.968 36.2224C156.018 36.1755 156.058 36.1192 156.085 36.0568C156.113 35.9945 156.127 35.9273 156.128 35.8592C156.125 35.7171 156.068 35.5814 155.968 35.4791C155.907 35.4234 155.835 35.3806 155.756 35.3533C155.677 35.326 155.594 35.3147 155.511 35.3202H154.414ZM154.414 37.6409V38.7302H155.854C155.933 38.7344 156.012 38.723 156.086 38.6967C156.161 38.6704 156.23 38.6297 156.288 38.577C156.392 38.4705 156.449 38.3279 156.448 38.1799C156.443 38.0397 156.386 37.9063 156.288 37.8054C156.229 37.7495 156.159 37.7061 156.082 37.6779C156.006 37.6496 155.924 37.637 155.842 37.6409H154.414Z" fill="#EA0029"/>
<path d="M163.712 33.8734V40.1714H162.146V38.3047H161.626L160.346 40.1714H158.534L159.98 38.0721C159.626 37.8984 159.328 37.6314 159.117 37.3004C158.903 36.9422 158.796 36.5309 158.808 36.1146C158.804 35.7915 158.866 35.4709 158.991 35.1727C159.108 34.9049 159.282 34.665 159.5 34.4691C159.72 34.2708 159.978 34.1201 160.26 34.0266C160.565 33.9227 160.886 33.8709 161.209 33.8734H163.712ZM161.089 35.4394C160.989 35.4334 160.889 35.4486 160.795 35.4838C160.702 35.519 160.617 35.5735 160.546 35.6436C160.482 35.7068 160.431 35.782 160.397 35.8648C160.363 35.9476 160.345 36.0364 160.346 36.1259C160.341 36.2154 160.358 36.3048 160.394 36.3866C160.431 36.4685 160.487 36.5405 160.557 36.5969C160.706 36.7191 160.896 36.7818 161.089 36.7728H162.146V35.4394H161.089Z" fill="#EA0029"/>
<path d="M170.209 35.5301H168.255V40.1771H166.689V35.5301H164.729V33.879H170.209V35.5301Z" fill="#EA0029"/>
<path d="M176.507 39.2181C176.28 39.5645 175.959 39.8399 175.581 40.0124C175.121 40.2431 174.611 40.3581 174.096 40.3472C173.663 40.348 173.234 40.2651 172.833 40.1032C172.028 39.7809 171.383 39.1573 171.038 38.367C170.68 37.5038 170.68 36.5351 171.038 35.6719C171.212 35.2786 171.46 34.9222 171.77 34.6222C172.076 34.3287 172.437 34.0974 172.833 33.9413C173.234 33.7812 173.663 33.7003 174.096 33.703C174.606 33.6907 175.111 33.8058 175.564 34.0378C175.931 34.2084 176.24 34.4802 176.456 34.8208L176.016 36.1145C175.817 35.8963 175.578 35.7173 175.313 35.5868C174.988 35.428 174.629 35.3483 174.267 35.3542C173.764 35.3296 173.271 35.4937 172.884 35.8137C172.715 35.9647 172.581 36.1506 172.492 36.3585C172.403 36.5663 172.362 36.791 172.37 37.0166C172.361 37.2439 172.403 37.4703 172.492 37.68C172.581 37.8897 172.715 38.0777 172.884 38.2308C173.27 38.5529 173.763 38.719 174.267 38.6961C174.634 38.702 174.997 38.6183 175.324 38.4521C175.594 38.3059 175.836 38.1139 176.039 37.8847L176.507 39.2181Z" fill="#EA0029"/>
<path d="M182.285 33.8734V40.1714H180.702V38.3047H180.182L178.902 40.1714H177.096L178.536 38.0721C178.182 37.8984 177.884 37.6314 177.673 37.3004C177.459 36.9422 177.352 36.5309 177.364 36.1146C177.36 35.7915 177.422 35.4709 177.547 35.1727C177.664 34.9049 177.838 34.665 178.056 34.4691C178.276 34.272 178.535 34.1214 178.816 34.0266C179.121 33.9227 179.442 33.8709 179.765 33.8734H182.285ZM179.662 35.4394C179.562 35.4334 179.462 35.4486 179.368 35.4838C179.275 35.519 179.19 35.5735 179.119 35.6436C179.055 35.7068 179.004 35.782 178.97 35.8648C178.936 35.9476 178.918 36.0364 178.919 36.1259C178.914 36.2154 178.931 36.3048 178.968 36.3866C179.004 36.4685 179.06 36.5405 179.13 36.5969C179.28 36.7181 179.469 36.7807 179.662 36.7728H180.702V35.4394H179.662Z" fill="#EA0029"/>
<path d="M58.5824 33.8847L61.2112 40.1828L59.3253 40.1771L57.8337 36.4834L56.3422 40.1771H54.4563L57.0851 33.879L58.5824 33.8847Z" fill="#EA0029"/>
</g>
<defs>
<clipPath id="clip0_3216_1286">
<rect width="241.839" height="49" fill="white"/>
</clipPath>
</defs>
</svg>
