<svg width="274" height="59" viewBox="0 0 274 59" fill="none" xmlns="http://www.w3.org/2000/svg">
<g clip-path="url(#clip0_3104_2027)">
<path d="M49.5527 13.5594H51.4674V18.8271H51.5044L55.7551 13.5594H57.9951L53.1233 19.4438L58.2686 25.6031H55.9399L51.5044 20.2462H51.4674V25.6031H49.5527V13.5594Z" fill="white"/>
<path d="M64.3453 26.0116C63.0886 29.4888 61.7062 29.942 60.1981 29.942C59.5777 29.9528 58.9624 29.8286 58.3943 29.5779L58.8674 28.092C59.257 28.2914 59.687 28.3981 60.1242 28.404C61.1443 28.404 61.9649 27.713 62.6377 25.6253L58.7787 16.9993H60.8117L63.4878 23.3963L65.6169 16.9993H67.5981L64.3453 26.0116Z" fill="white"/>
<path d="M74.695 21.5167C74.695 20.1273 74.2367 18.8494 72.7138 18.8494C71.9081 18.884 71.1245 19.1243 70.4369 19.5478V20.2387C70.4369 22.9952 71.2574 24.2583 72.6546 24.2583C74.1849 24.236 74.7468 23.0026 74.7468 21.5167H74.695ZM68.5148 20.157C68.5148 18.0767 69.0618 16.0409 69.875 15.1642C70.9322 13.8863 72.1889 13.6782 75.9518 12.6975V14.4509C72.6399 15.3425 71.6788 15.5283 71.117 16.3307C70.7795 16.8544 70.567 17.4494 70.496 18.0693C71.2577 17.6117 72.1226 17.3561 73.0095 17.3263C75.523 17.3263 76.6097 19.1169 76.6097 21.3829C76.6097 23.9239 75.2273 25.8408 72.5142 25.8408C70.1338 25.8408 68.4778 24.2508 68.4778 20.1719" fill="white"/>
<path d="M81.9176 21.5167C81.4405 21.5022 80.9668 21.6015 80.5352 21.8064C80.3416 21.9134 80.1824 22.0737 80.0763 22.2685C79.9702 22.4633 79.9217 22.6845 79.9364 22.906C79.9284 23.0739 79.9535 23.2417 80.0102 23.3998C80.0668 23.5579 80.1539 23.7032 80.2666 23.8275C80.3792 23.9517 80.5151 24.0524 80.6664 24.1237C80.8178 24.1951 80.9817 24.2358 81.1488 24.2434H81.3336C82.0368 24.2091 82.7027 23.9155 83.2039 23.4187V21.5167H81.9176ZM83.337 24.6966C82.6747 25.3706 81.7733 25.7527 80.8309 25.7591C80.4847 25.7812 80.1377 25.7346 79.8095 25.6219C79.4813 25.5091 79.1784 25.3325 78.9182 25.102C78.658 24.8715 78.4455 24.5918 78.2929 24.2787C78.1404 23.9656 78.0507 23.6254 78.0291 23.2775C78.0291 23.1933 78.0291 23.1067 78.0291 23.0175C78.0081 22.528 78.1335 22.0435 78.3892 21.6263C78.6448 21.2092 79.0189 20.8786 79.4632 20.6771C80.1608 20.3653 80.9177 20.2106 81.681 20.2239L83.2261 20.1719V19.8375C83.2491 19.6089 83.219 19.3781 83.1382 19.1631C83.0573 18.9482 82.928 18.755 82.7604 18.5987C82.5928 18.4425 82.3913 18.3274 82.172 18.2626C81.9526 18.1978 81.7213 18.185 81.4962 18.2253C80.6897 18.2319 79.8992 18.4523 79.2045 18.8642L78.5466 17.6012C79.5313 17.0318 80.6485 16.7345 81.7845 16.7393C83.9136 16.7393 85.1112 17.7275 85.1112 19.8301V23.1587C85.0707 23.9795 85.1253 24.8023 85.2738 25.6105H83.6549L83.337 24.6966Z" fill="white"/>
<path d="M87.3364 16.9548H89.2289V20.1793H92.8661V16.9548H94.7586V25.6031H92.8661V21.8361H89.2289V25.6031H87.3364V16.9548Z" fill="white"/>
<path d="M96.5845 21.3458C96.5344 20.1775 96.9477 19.037 97.7336 18.1747C98.5195 17.3124 99.6138 16.7988 100.776 16.7468H101.02C101.816 16.7263 102.602 16.9213 103.297 17.3114V18.9386C102.682 18.5141 101.951 18.2909 101.205 18.2996C99.5342 18.2996 98.514 19.5775 98.514 21.2715C98.514 23.1512 99.5342 24.2434 101.094 24.2434C101.814 24.2349 102.519 24.0322 103.134 23.6565L103.681 24.9715C102.835 25.5179 101.849 25.8045 100.843 25.7963C98.1 25.7963 96.5698 23.8422 96.5698 21.3384" fill="white"/>
<path d="M105.116 16.9622H107.008V20.4691H108.014C109.145 20.4691 109.122 18.5893 109.817 17.4971C109.981 17.2421 110.209 17.035 110.477 16.8967C110.746 16.7585 111.046 16.6939 111.348 16.7096C111.618 16.7099 111.886 16.7474 112.146 16.821V18.4482C111.999 18.397 111.844 18.3719 111.688 18.3739C111.567 18.3708 111.447 18.3976 111.338 18.4521C111.23 18.5065 111.137 18.5868 111.067 18.6859C110.616 19.3249 110.557 20.692 109.758 21.1675C109.997 21.2659 110.212 21.4151 110.388 21.605C110.564 21.7948 110.697 22.0206 110.778 22.2671L112.36 25.5436H110.327L109.145 22.7277C108.856 22.111 108.598 21.8659 108.346 21.8659H106.979V25.5808H105.086V16.9622H105.116Z" fill="white"/>
<path d="M113.883 16.9622H115.739V21.1675C115.755 21.7777 115.73 22.3883 115.665 22.9952C115.938 22.542 116.323 21.9328 116.833 21.1823L119.79 16.9622H121.609V25.6105H119.753V21.4052C119.747 20.7951 119.772 20.1851 119.827 19.5775H119.775C119.516 20.0159 119.139 20.64 118.629 21.3904L115.672 25.6105H113.854V16.9622H113.883Z" fill="white"/>
<path d="M124.891 12.7792H126.495C126.475 12.9728 126.496 13.1683 126.556 13.3533C126.616 13.5383 126.714 13.7085 126.843 13.853C126.973 13.9976 127.131 14.1131 127.308 14.1922C127.485 14.2712 127.677 14.3121 127.87 14.3121C128.064 14.3121 128.255 14.2712 128.432 14.1922C128.609 14.1131 128.767 13.9976 128.897 13.853C129.026 13.7085 129.124 13.5383 129.184 13.3533C129.244 13.1683 129.265 12.9728 129.245 12.7792H130.827C130.862 13.1763 130.809 13.5762 130.672 13.9503C130.535 14.3244 130.317 14.6634 130.035 14.9432C129.752 15.2229 129.412 15.4364 129.038 15.5684C128.663 15.7003 128.265 15.7475 127.87 15.7066C125.904 15.7066 124.854 14.4807 124.913 12.7792H124.891ZM123.93 16.9622H125.756V21.1675C125.772 21.7777 125.747 22.3883 125.682 22.9952C125.955 22.542 126.34 21.9327 126.85 21.1823L129.807 16.9622H131.67V25.6105H129.814V21.4052C129.808 20.7951 129.833 20.1851 129.888 19.5775H129.837C129.585 20.0159 129.201 20.64 128.691 21.3904L125.734 25.6105H123.915V16.9622H123.93Z" fill="white"/>
<path d="M137.931 16.9548H143.971L143.409 18.6413H139.824V25.6031H137.931V16.9548Z" fill="white"/>
<path d="M151.371 21.2566C151.371 19.5404 150.573 18.2847 149.153 18.2847C147.734 18.2847 146.936 19.5255 146.936 21.2566C146.936 22.9878 147.756 24.2286 149.153 24.2286C150.551 24.2286 151.371 22.9878 151.371 21.2566ZM144.932 21.2566C144.932 18.6785 146.61 16.7393 149.131 16.7393C151.652 16.7393 153.352 18.6488 153.352 21.2566C153.352 23.8645 151.682 25.7888 149.168 25.7888C146.655 25.7888 144.977 23.8348 144.977 21.2566" fill="white"/>
<path d="M154.72 21.3458C154.67 20.1775 155.083 19.037 155.869 18.1747C156.655 17.3124 157.749 16.7989 158.912 16.7468H159.156C159.951 16.7285 160.737 16.9234 161.433 17.3115V18.9386C160.817 18.5141 160.087 18.2909 159.34 18.2996C157.662 18.2996 156.65 19.5775 156.65 21.2715C156.65 23.1513 157.662 24.2434 159.23 24.2434C159.95 24.2353 160.655 24.0326 161.27 23.6565L161.817 24.9716C160.973 25.5165 159.989 25.8031 158.986 25.7963C156.236 25.7963 154.713 23.8422 154.713 21.3384" fill="white"/>
<path d="M167.857 26.0116C166.6 29.4888 165.218 29.942 163.71 29.942C163.089 29.9528 162.474 29.8286 161.906 29.5779L162.379 28.092C162.766 28.2905 163.193 28.3973 163.628 28.404C164.648 28.404 165.469 27.713 166.142 25.6253L162.29 16.9993H164.323L166.999 23.3963L169.128 16.9993H171.095L167.857 26.0116Z" fill="white"/>
<path d="M177.822 18.5448H176.122C175.894 20.4779 175.275 22.3438 174.303 24.028H177.829V18.5448H177.822ZM171.694 24.0651H172.241C173.475 22.5272 174.081 20.6846 174.732 16.9697H179.722V24.0651H180.942V28.6493H179.182V25.6105H173.468V28.6419H171.708V24.0577L171.694 24.0651Z" fill="white"/>
<path d="M186.124 21.5167C185.647 21.5025 185.173 21.6018 184.742 21.8064C184.548 21.9134 184.389 22.0737 184.283 22.2685C184.177 22.4633 184.128 22.6845 184.143 22.906C184.135 23.0739 184.16 23.2417 184.216 23.3998C184.273 23.5579 184.36 23.7032 184.473 23.8275C184.585 23.9517 184.721 24.0524 184.873 24.1237C185.024 24.1951 185.188 24.2358 185.355 24.2434H185.54C186.243 24.2091 186.909 23.9155 187.41 23.4187V21.5167H186.124ZM187.543 24.6966C187.214 25.0312 186.823 25.2973 186.392 25.4796C185.961 25.6619 185.498 25.7569 185.03 25.7591C184.684 25.7812 184.337 25.7346 184.008 25.6219C183.68 25.5091 183.377 25.3325 183.117 25.102C182.857 24.8715 182.644 24.5918 182.492 24.2787C182.339 23.9656 182.25 23.6254 182.228 23.2775C182.228 23.1933 182.228 23.1067 182.228 23.0175C182.207 22.528 182.332 22.0435 182.588 21.6263C182.844 21.2092 183.218 20.8786 183.662 20.6771C184.36 20.3651 185.117 20.2104 185.88 20.2239L187.425 20.1719V19.8375C187.448 19.6089 187.418 19.3781 187.337 19.1631C187.256 18.9482 187.127 18.755 186.959 18.5987C186.792 18.4425 186.59 18.3274 186.371 18.2626C186.152 18.1978 185.92 18.185 185.695 18.2253C184.889 18.2312 184.098 18.4517 183.403 18.8642L182.745 17.6012C183.73 17.0318 184.847 16.7345 185.983 16.7393C188.113 16.7393 189.31 17.7275 189.31 19.8301V23.1587C189.27 23.9795 189.324 24.8023 189.473 25.6105H187.854L187.543 24.6966Z" fill="white"/>
<path d="M194.655 24.1988C196.363 24.1988 197.257 23.0323 197.257 21.2269C197.257 19.2357 196.163 18.3218 194.552 18.3218C194.164 18.3185 193.777 18.3736 193.406 18.4853V23.9165C193.798 24.1043 194.228 24.1984 194.662 24.1914L194.655 24.1988ZM191.55 17.2817C192.549 16.9241 193.602 16.7382 194.662 16.7319C197.619 16.7319 199.246 18.4482 199.246 21.2492C199.266 21.9608 199.115 22.6668 198.804 23.3068C198.494 23.9467 198.033 24.5014 197.463 24.9236C196.893 25.3457 196.229 25.6226 195.529 25.7306C194.829 25.8386 194.113 25.7744 193.443 25.5436V29.9272H191.55V17.2965V17.2817Z" fill="white"/>
<path d="M200.606 21.3458C200.556 20.1775 200.969 19.037 201.755 18.1747C202.541 17.3124 203.635 16.7988 204.798 16.7468H205.042C205.837 16.7263 206.624 16.9213 207.319 17.3114V18.9386C206.704 18.5132 205.973 18.2899 205.226 18.2996C203.556 18.2996 202.536 19.5775 202.536 21.2715C202.536 23.1512 203.556 24.2434 205.123 24.2434C205.843 24.2353 206.548 24.0325 207.163 23.6565L207.71 24.9715C206.859 25.5181 205.867 25.8022 204.857 25.7888C202.114 25.7888 200.584 23.8348 200.584 21.3309" fill="white"/>
<path d="M211.081 18.567H208.405V16.9548H216.101L215.576 18.567H212.974V25.6031H211.081V18.567Z" fill="white"/>
<path d="M220.958 24.2211C221.993 24.2211 222.436 23.8348 222.436 23.0472C222.436 22.2597 221.941 21.8807 221.017 21.8807H219.25V24.2211H220.958ZM220.869 20.5805C221.779 20.5805 222.252 20.2165 222.252 19.4661C222.252 18.7157 221.867 18.3516 220.773 18.3516H219.295V20.5805H220.869ZM217.469 16.9622H220.744C223.309 16.9622 224.129 18.1658 224.129 19.2803C224.14 19.7161 223.997 20.1417 223.727 20.4827C223.457 20.8236 223.076 21.0581 222.651 21.1452C223.104 21.2233 223.516 21.4587 223.814 21.8102C224.113 22.1618 224.279 22.6074 224.285 23.0695C224.285 24.2731 223.449 25.5362 220.847 25.5362H217.424V16.9622H217.469Z" fill="white"/>
<path d="M231.271 20.4022C231.271 19.3026 230.709 18.2253 229.489 18.2253C228.269 18.2253 227.67 19.2283 227.656 20.4022H231.271ZM227.67 21.7544C227.644 22.3977 227.873 23.025 228.307 23.4987C228.741 23.9723 229.344 24.2535 229.984 24.2806H230.236C230.997 24.2812 231.744 24.0787 232.402 23.6936L232.949 24.9938C232.059 25.5392 231.033 25.8176 229.992 25.7963C226.99 25.7963 225.697 23.6565 225.697 21.2641C225.697 18.6488 227.131 16.7468 229.459 16.7468C231.788 16.7468 233.156 18.5002 233.156 21.3012V21.7619H227.656L227.67 21.7544Z" fill="white"/>
<path d="M235.041 16.9548H236.933V20.1793H240.571V16.9548H242.463V25.6031H240.571V21.8361H236.933V25.6031H235.041V16.9548Z" fill="white"/>
<path d="M244.733 16.9548H246.625V20.1793H250.262V16.9548H252.162V25.6031H250.262V21.8361H246.625V25.6031H244.733V16.9548Z" fill="white"/>
<path d="M262.09 16.9622H263.998V25.6105H262.105V16.9622H262.09ZM257.211 24.1245C258.756 24.1245 259.052 23.5599 259.052 22.8466C259.052 22.1334 258.69 21.5836 257.211 21.5836C256.915 21.5862 256.619 21.6061 256.324 21.643V24.132H257.211V24.1245ZM254.432 16.9622H256.324V20.1347C256.643 20.0973 256.964 20.0774 257.285 20.0753C260.028 20.0753 260.982 21.3532 260.982 22.802C260.982 24.2508 260.124 25.6031 257.285 25.6031H254.387V16.9622H254.432Z" fill="white"/>
<path d="M267.258 12.7792H268.84C268.82 12.9728 268.841 13.1683 268.901 13.3533C268.961 13.5383 269.059 13.7085 269.188 13.853C269.318 13.9976 269.476 14.1131 269.653 14.1922C269.83 14.2712 270.021 14.3121 270.215 14.3121C270.409 14.3121 270.6 14.2712 270.777 14.1922C270.954 14.1131 271.112 13.9976 271.242 13.853C271.371 13.7085 271.469 13.5383 271.529 13.3533C271.589 13.1683 271.61 12.9728 271.59 12.7792H273.172C273.208 13.1766 273.156 13.5771 273.02 13.9518C272.883 14.3266 272.666 14.6662 272.383 14.9462C272.1 15.2262 271.759 15.4397 271.384 15.5712C271.009 15.7027 270.61 15.7489 270.215 15.7066C268.249 15.7066 267.199 14.4807 267.258 12.7792ZM266.275 16.9622H268.13V21.1675C268.146 21.7777 268.121 22.3883 268.056 22.9952C268.33 22.542 268.707 21.9327 269.224 21.1823L272.181 16.9622H274V25.6105H272.13V21.4052C272.123 20.7951 272.148 20.1851 272.204 19.5775H272.152C271.9 20.0159 271.516 20.64 271.006 21.3904L268.049 25.6105H266.23V16.9622H266.275Z" fill="white"/>
<path d="M52.6281 37.9068C52.151 37.8926 51.6773 37.9919 51.2456 38.1966C51.0532 38.303 50.8948 38.4621 50.7888 38.6555C50.6828 38.8488 50.6336 39.0684 50.6468 39.2887C50.6286 39.6241 50.7424 39.9533 50.9638 40.205C51.1852 40.4566 51.4962 40.6106 51.8297 40.6335H52.0219C52.725 40.5993 53.3909 40.3056 53.8922 39.8088V37.8622L52.6281 37.9068ZM54.0474 41.0867C53.7186 41.4213 53.3274 41.6874 52.8961 41.8697C52.4647 42.0521 52.0019 42.147 51.5339 42.1492C51.1878 42.1714 50.8407 42.1247 50.5125 42.012C50.1843 41.8992 49.8815 41.7226 49.6212 41.4921C49.361 41.2616 49.1486 40.9819 48.996 40.6688C48.8435 40.3558 48.7538 40.0156 48.7321 39.6677C48.7321 39.5835 48.7321 39.4968 48.7321 39.4076C48.7112 38.9182 48.8366 38.4336 49.0922 38.0165C49.3479 37.5993 49.722 37.2687 50.1663 37.0672C50.8639 36.7556 51.6208 36.601 52.3841 36.614L53.9292 36.562V36.1979C53.9521 35.9693 53.922 35.7385 53.8412 35.5235C53.7604 35.3086 53.6311 35.1154 53.4635 34.9591C53.2958 34.8029 53.0944 34.6878 52.8751 34.623C52.6557 34.5582 52.4244 34.5455 52.1993 34.5857C51.3927 34.5919 50.6021 34.8124 49.9076 35.2246L49.2496 33.9616C50.2345 33.3926 51.3516 33.0952 52.4876 33.0997C54.6167 33.0997 55.8143 34.0879 55.8143 36.1905V39.5191C55.773 40.3399 55.8276 41.1628 55.9769 41.9709H54.3579L54.0474 41.0867Z" fill="white"/>
<path d="M58.0542 33.3152H64.0866L63.5248 35.0017H59.9394V41.9635H58.0542V33.3152Z" fill="white"/>
<path d="M68.6183 40.5593C70.326 40.5593 71.2205 39.3854 71.2205 37.5874C71.2205 35.5887 70.1264 34.6749 68.5148 34.6749C68.1268 34.6712 67.7405 34.7263 67.3689 34.8383V40.2695C67.7612 40.4571 68.1913 40.5512 68.6257 40.5444L68.6183 40.5593ZM65.4764 33.6347C66.4757 33.2767 67.5279 33.0908 68.5887 33.0849C71.5458 33.0849 73.1721 34.8012 73.1721 37.6022C73.2103 38.201 73.1222 38.8011 72.9138 39.3633C72.7054 39.9256 72.3813 40.4373 71.9626 40.865C71.544 41.2928 71.0403 41.627 70.4844 41.8457C69.9285 42.0644 69.3329 42.1628 68.7366 42.1344C68.266 42.1314 67.799 42.0511 67.3541 41.8966V46.2802H65.4616V33.6496L65.4764 33.6347Z" fill="white"/>
<path d="M78.4431 37.9068C77.966 37.8929 77.4924 37.9922 77.0607 38.1966C76.8683 38.303 76.7099 38.4621 76.6039 38.6555C76.4979 38.8488 76.4486 39.0684 76.4619 39.2887C76.4529 39.4566 76.477 39.6246 76.5327 39.7831C76.5885 39.9416 76.6748 40.0875 76.7867 40.2124C76.8986 40.3374 77.034 40.4389 77.185 40.5111C77.3361 40.5834 77.4998 40.625 77.6669 40.6335H77.8591C78.5648 40.6011 79.2337 40.3073 79.7368 39.8088V37.8622L78.4431 37.9068ZM79.8625 41.0867C79.5337 41.4213 79.1424 41.6874 78.7111 41.8697C78.2798 42.0521 77.8169 42.147 77.349 42.1492C77.0028 42.1714 76.6557 42.1247 76.3275 42.012C75.9994 41.8992 75.6965 41.7226 75.4363 41.4921C75.1761 41.2616 74.9636 40.9819 74.811 40.6688C74.6585 40.3558 74.5688 40.0156 74.5472 39.6677C74.5472 39.5835 74.5472 39.4968 74.5472 39.4076C74.5262 38.9182 74.6516 38.4336 74.9073 38.0165C75.1629 37.5993 75.537 37.2687 75.9813 37.0672C76.679 36.7559 77.4359 36.6012 78.1991 36.614L79.7442 36.562V36.1979C79.7672 35.9693 79.737 35.7385 79.6562 35.5235C79.5754 35.3086 79.4461 35.1154 79.2785 34.9591C79.1109 34.8029 78.9094 34.6878 78.6901 34.623C78.4707 34.5582 78.2394 34.5455 78.0143 34.5857C77.2078 34.5923 76.4173 34.8127 75.7226 35.2246L75.0647 33.9616C76.0496 33.3926 77.1666 33.0952 78.3026 33.0997C80.4317 33.0997 81.6293 34.0879 81.6293 36.1905V39.5191C81.5882 40.3399 81.6428 41.1628 81.7919 41.9709H80.1656L79.8625 41.0867Z" fill="white"/>
<path d="M86.9741 40.5593C88.6818 40.5593 89.5763 39.3854 89.5763 37.5874C89.5763 35.5887 88.4896 34.6749 86.8706 34.6749C86.4827 34.6712 86.0964 34.7263 85.7248 34.8383V40.2695C86.1171 40.4571 86.5472 40.5512 86.9815 40.5444L86.9741 40.5593ZM83.8323 33.6347C84.8316 33.2769 85.8838 33.091 86.9446 33.0849C89.9016 33.0849 91.528 34.8012 91.528 37.6022C91.5661 38.201 91.4781 38.8011 91.2697 39.3633C91.0612 39.9256 90.7371 40.4373 90.3185 40.865C89.8999 41.2928 89.3961 41.627 88.8402 41.8457C88.2843 42.0644 87.6887 42.1628 87.0924 42.1344C86.6218 42.1315 86.1548 42.0512 85.71 41.8966V46.2802H83.8619V33.6496L83.8323 33.6347Z" fill="white"/>
<path d="M93.3762 33.3152H95.2687V36.5323H98.9058V33.3152H100.798V41.9635H98.9058V38.1966H95.2687V41.9635H93.3762V33.3152Z" fill="white"/>
<path d="M110.734 33.3225H112.627V41.9708H110.734V33.3225ZM105.862 40.4923C107.407 40.4923 107.696 39.9276 107.696 39.2143C107.696 38.5011 107.333 37.9513 105.862 37.9513C105.563 37.9533 105.265 37.9732 104.968 38.0107V40.4997H105.862V40.4923ZM103.083 33.3225H104.975V36.4802C105.294 36.443 105.615 36.4232 105.936 36.4207C108.679 36.4207 109.596 37.6987 109.596 39.1475C109.596 40.5963 108.738 41.9485 105.899 41.9485H103.083V33.3225Z" fill="white"/>
<path d="M115.901 29.1323H117.484C117.459 29.328 117.476 29.5268 117.533 29.7154C117.591 29.904 117.688 30.0781 117.817 30.2262C117.947 30.3742 118.107 30.4928 118.286 30.5741C118.465 30.6553 118.659 30.6973 118.855 30.6973C119.051 30.6973 119.245 30.6553 119.424 30.5741C119.603 30.4928 119.763 30.3742 119.892 30.2262C120.022 30.0781 120.119 29.904 120.176 29.7154C120.234 29.5268 120.251 29.328 120.226 29.1323H121.808C121.843 29.5291 121.79 29.9288 121.653 30.3026C121.516 30.6764 121.299 31.015 121.016 31.2942C120.733 31.5734 120.392 31.7861 120.018 31.9172C119.644 32.0483 119.245 32.0944 118.851 32.0522C116.885 32.0522 115.835 30.8337 115.894 29.1323H115.901ZM114.911 33.3227H116.766V37.528C116.782 38.1382 116.758 38.7488 116.693 39.3557C116.966 38.9025 117.35 38.2933 117.853 37.5429L120.81 33.3227H122.629V41.971H120.825V37.7657C120.819 37.1556 120.844 36.5456 120.899 35.938H120.825C120.574 36.3764 120.189 37.0005 119.679 37.7509L116.722 41.9784H114.911V33.3227Z" fill="white"/>
<path d="M133.548 42.3721C132.291 45.8493 130.908 46.3025 129.4 46.3025C128.78 46.3135 128.165 46.1893 127.597 45.9384L128.07 44.4525C128.459 44.6521 128.889 44.7589 129.326 44.7645C130.347 44.7645 131.16 44.0736 131.833 41.9858L127.974 33.3598H130.007L132.683 39.7569L134.812 33.3598H136.778L133.548 42.3721Z" fill="white"/>
<path d="M138.131 33.3152H140.024V36.5323H143.661V33.3152H145.553V41.9635H143.661V38.1966H140.024V41.9635H138.131V33.3152Z" fill="white"/>
<path d="M147.83 33.3225H149.656V37.5278C149.656 38.2187 149.656 38.828 149.582 39.3555C149.856 38.9023 150.24 38.293 150.75 37.5426L153.707 33.3225H155.57V41.9708H153.715V37.7655C153.708 37.1554 153.733 36.5454 153.789 35.9378H153.722C153.463 36.3762 153.086 37.0003 152.576 37.7507L149.619 41.9782H147.801V33.3225H147.83Z" fill="white"/>
<path d="M161.344 40.5814C162.379 40.5814 162.822 40.1951 162.822 39.4075C162.822 38.62 162.335 38.241 161.403 38.241H159.636V40.5814H161.344ZM161.24 36.9408C162.15 36.9408 162.623 36.5768 162.623 35.8264C162.623 35.0759 162.246 34.7119 161.144 34.7119H159.666V36.9408H161.24ZM157.84 33.3225H161.115C163.68 33.3225 164.501 34.5336 164.501 35.648C164.511 36.0838 164.369 36.5095 164.098 36.8504C163.828 37.1913 163.447 37.4259 163.022 37.5129C163.484 37.5872 163.905 37.8248 164.209 38.183C164.512 38.5412 164.679 38.9965 164.678 39.467C164.678 40.6706 163.843 41.9336 161.24 41.9336H157.803V33.3225H157.84Z" fill="white"/>
<path d="M171.657 36.7553C171.657 35.6557 171.095 34.5784 169.875 34.5784C168.655 34.5784 168.056 35.5814 168.034 36.7553H171.657ZM168.056 38.1075C168.032 38.7527 168.264 39.3811 168.701 39.8548C169.137 40.3284 169.743 40.6085 170.385 40.6337H170.622C171.383 40.634 172.13 40.4314 172.788 40.0467L173.35 41.3469C172.46 41.8919 171.434 42.1703 170.392 42.1493C167.391 42.1493 166.097 40.0096 166.097 37.6172C166.097 35.0019 167.576 33.0999 169.86 33.0999C172.145 33.0999 173.557 34.8533 173.557 37.6543V38.115H168.056V38.1075Z" fill="white"/>
<path d="M178.539 40.5593C180.247 40.5593 181.141 39.3854 181.141 37.5874C181.141 35.5887 180.047 34.6749 178.428 34.6749C178.04 34.6712 177.654 34.7263 177.282 34.8383V40.2695C177.675 40.4571 178.105 40.5512 178.539 40.5444V40.5593ZM175.39 33.6347C176.389 33.277 177.441 33.0911 178.502 33.0849C181.459 33.0849 183.086 34.8012 183.086 37.6022C183.124 38.201 183.036 38.8011 182.827 39.3633C182.619 39.9256 182.295 40.4373 181.876 40.865C181.457 41.2928 180.954 41.627 180.398 41.8457C179.842 42.0644 179.246 42.1628 178.65 42.1344C178.179 42.1315 177.712 42.0512 177.268 41.8966V46.2802H175.375V33.6496L175.39 33.6347Z" fill="white"/>
<path d="M184.49 37.7062C184.44 36.5379 184.853 35.3974 185.639 34.5351C186.425 33.6728 187.519 33.1592 188.682 33.1072H188.926C189.721 33.0867 190.508 33.2817 191.203 33.6718V35.299C190.588 34.874 189.857 34.6508 189.111 34.66C187.44 34.66 186.42 35.9379 186.42 37.6319C186.42 39.5117 187.44 40.6038 189.007 40.6038C189.727 40.5976 190.431 40.3975 191.047 40.0243L191.594 41.3394C190.748 41.8858 189.762 42.1723 188.756 42.1641C186.013 42.1641 184.483 40.2101 184.483 37.7062" fill="white"/>
<path d="M193.029 33.3225H194.884V37.5278C194.884 38.2187 194.884 38.828 194.81 39.3555C195.084 38.9023 195.468 38.293 195.978 37.5426L198.935 33.3225H200.754V41.9708H198.906V37.7655C198.9 37.1554 198.924 36.5454 198.98 35.9378H198.943C198.691 36.3762 198.307 37.0003 197.797 37.7507L194.84 41.9782H193.029V33.3225Z" fill="white"/>
<path d="M204.99 34.9274H202.314V33.3152H210.009L209.477 34.9274H206.882V41.9635H204.99V34.9274Z" fill="white"/>
<path d="M216.471 36.7553C216.471 35.6557 215.909 34.5784 214.689 34.5784C213.469 34.5784 212.87 35.5814 212.856 36.7553H216.471ZM212.87 38.1075C212.844 38.7508 213.073 39.3781 213.507 39.8518C213.941 40.3254 214.544 40.6066 215.184 40.6337H215.436C216.197 40.6336 216.944 40.4311 217.602 40.0467L218.164 41.3469C217.274 41.8919 216.248 42.1703 215.206 42.1493C212.205 42.1493 210.911 40.0096 210.911 37.6172C210.911 35.0019 212.346 33.0999 214.674 33.0999C217.003 33.0999 218.371 34.8533 218.371 37.6543V38.115H212.87V38.1075Z" fill="white"/>
<path d="M222.178 34.9274H219.502V33.3152H227.197L226.672 34.9274H224.07V41.9635H222.178V34.9274Z" fill="white"/>
<path d="M8.11709 14.763L16.2046 6.65709L19.376 9.84447L4.86434 24.4069C4.80099 23.9141 4.76889 23.4178 4.76823 22.9209C4.76886 21.4171 5.06501 19.9282 5.6397 18.5397C6.2144 17.1512 7.0563 15.8905 8.11709 14.8299V14.763ZM25.7189 16.5833L9.69172 32.6614L8.38322 31.3017H8.33887L8.1023 31.0714C7.55352 30.5316 7.05834 29.9394 6.62378 29.3031L22.651 13.1433L24.2552 14.7556C24.7872 15.2913 25.2651 15.8786 25.6819 16.509L25.7189 16.5833ZM24.2626 31.0045L16.1824 39.1773L12.9814 35.9602L27.4931 21.3681C27.7315 23.1194 27.5639 24.9023 27.0035 26.5777C26.4431 28.2532 25.5051 29.7758 24.2626 31.0268V31.0045ZM5.04176 34.6526L16.1307 45.7972L27.434 34.4371L28.1141 33.7387C30.7526 30.783 32.221 26.9575 32.2415 22.9867C32.2619 19.0158 30.8329 15.1753 28.225 12.1923L16.1159 -0.0297241L4.71649 11.4567C1.69595 14.4952 -0.000747681 18.6146 -0.000747681 22.9098C-0.000747681 27.2049 1.69595 31.3243 4.71649 34.3628L5.02698 34.66" fill="white"/>
<path d="M32.0026 33.2185C31.3855 35.859 30.114 38.2998 28.3063 40.314L27.6262 41.0124L16.3451 52.3725L5.25615 41.2278L4.95306 40.9306C2.84002 38.8144 1.35969 36.1452 0.680123 33.2259H0.5027C0.0327806 35.7973 0.190909 38.4448 0.963503 40.9412C1.7361 43.4376 3.10007 45.7082 4.93827 47.558L5.25615 47.8552L16.3451 58.9999L27.604 47.6397L28.2842 46.9413C29.9274 45.1019 31.1302 42.909 31.8003 40.5304C32.4705 38.1519 32.5902 35.6507 32.1505 33.2185H32.0026Z" fill="white"/>
</g>
<defs>
<clipPath id="clip0_3104_2027">
<rect width="274" height="59" fill="white"/>
</clipPath>
</defs>
</svg>
