<svg width="20" height="20" viewBox="0 0 20 20" fill="none" xmlns="http://www.w3.org/2000/svg">
<path fill-rule="evenodd" clip-rule="evenodd" d="M8.24995 0.699951C4.08027 0.699951 0.699951 4.08027 0.699951 8.24995C0.699951 12.4196 4.08027 15.8 8.24995 15.8C9.89259 15.8024 11.4882 15.267 12.7948 14.2796L17.5056 18.9904L17.5037 18.9884L17.7194 18.78L17.5073 18.9921L17.5056 18.9904C17.6021 19.0897 17.7172 19.169 17.8445 19.2237C17.9726 19.2787 18.1104 19.3077 18.2498 19.3089C18.3892 19.3101 18.5275 19.2835 18.6565 19.2307C18.7856 19.1779 18.9028 19.1 19.0014 19.0014C19.1 18.9028 19.1779 18.7856 19.2307 18.6565C19.2835 18.5275 19.3101 18.3892 19.3089 18.2498C19.3077 18.1104 19.2787 17.9726 19.2237 17.8445C19.169 17.7173 19.0897 17.6021 18.9904 17.5057L18.9921 17.5073L18.78 17.7194L18.9884 17.5037L18.9904 17.5057L14.2801 12.7948C15.2673 11.4882 15.8025 9.89253 15.8 8.24995C15.8 4.08027 12.4196 0.699951 8.24995 0.699951ZM8.24995 2.79995C5.24014 2.79995 2.79995 5.24014 2.79995 8.24995C2.79995 11.2598 5.24014 13.7 8.24995 13.7C11.2598 13.7 13.7 11.2598 13.7 8.24995C13.7 5.24014 11.2598 2.79995 8.24995 2.79995Z" fill="#218A3D"/>
</svg>
